<svg width="305" height="56" viewBox="0 0 305 56" fill="none" xmlns="http://www.w3.org/2000/svg">
<path d="M278.319 5.82408H285.935C285.935 20.5521 279.663 30.4081 261.911 35.9521L259.111 30.1281C273.951 25.6481 278.319 18.4241 278.319 8.90408V5.82408ZM261.743 5.82408H282.687V11.7601H261.743V5.82408ZM278.655 16.0721V21.1121L260.175 22.5121L259.111 16.6881L278.655 16.0721ZM293.887 2.18408H301.391V39.8721H293.887V2.18408ZM266.839 47.2641H302.679V53.2001H266.839V47.2641ZM266.839 36.8481H274.287V50.7361H266.839V36.8481Z" fill="#E31F24"/>
<path d="M242.371 2.12793H249.875V53.9839H242.371V2.12793ZM219.523 15.5679H225.403V18.2559C225.403 29.2319 220.531 40.2639 210.955 44.4079L206.979 38.6959C215.491 34.8879 219.523 26.0959 219.523 18.2559V15.5679ZM221.147 15.5679H226.971V18.2559C226.971 25.7039 231.059 34.2159 239.627 37.8559L235.651 43.5679C226.075 39.5919 221.147 28.8959 221.147 18.2559V15.5679ZM208.715 10.5839H237.555V16.4639H208.715V10.5839ZM219.523 3.30393H226.971V13.6079H219.523V3.30393Z" fill="#E31F24"/>
<path d="M161.232 3.02393H168.568V6.43992H188.784V3.02393H196.176V20.3839H161.232V3.02393ZM168.568 11.8719V14.8959H188.784V11.8719H168.568ZM155.24 23.1839H202.112V29.0079H155.24V23.1839ZM160.616 31.9759H196.456V45.1359H168.008V49.8399H160.672V40.0399H189.12V37.4079H160.616V31.9759ZM160.672 48.1039H197.8V53.6479H160.672V48.1039Z" fill="#E31F24"/>
<path d="M105.292 6.99993H130.1V41.3839H105.292V6.99993ZM122.764 12.8239H112.628V35.5039H122.764V12.8239ZM136.876 2.12793H144.38V53.9839H136.876V2.12793ZM142.7 21.6719H151.884V27.8319H142.7V21.6719Z" fill="#E31F24"/>
<path d="M57.6966 26.04H94.1527V31.976H57.6966V26.04ZM52.2646 41.664H99.1927V47.768H52.2646V41.664ZM57.6966 6.38403H93.7607V12.432H65.0886V28.504H57.6966V6.38403Z" fill="#E31F24"/>
<path d="M2.09311 35.7839H5.78911C12.0611 35.7839 17.6051 35.6159 24.0451 34.4959L24.6611 40.4879C17.9971 41.7199 12.2851 41.8879 5.78911 41.8879H2.09311V35.7839ZM2.03711 7.22393H20.3491V27.0479H9.31711V38.1359H2.09311V21.2239H13.1811V13.1039H2.03711V7.22393ZM38.1571 2.12793H45.2131V53.9839H38.1571V2.12793ZM22.4771 19.7679H30.5411V25.8719H22.4771V19.7679ZM27.6291 3.07993H34.5171V51.5199H27.6291V3.07993Z" fill="#E31F24"/>
<path fill-rule="evenodd" clip-rule="evenodd" d="M259.743 3.82408V13.7601H275.827C275.796 13.8953 275.765 14.0297 275.731 14.1633L256.726 14.7623L258.531 24.6424L268.405 23.8944C265.922 25.5028 262.698 26.9561 258.533 28.2134L256.296 28.8887L260.858 38.3764L262.508 37.8611C263.305 37.612 264.083 37.3538 264.839 37.0863V55.2001H304.679V45.2641H276.287V34.8481H270.257C275.408 32.3633 279.337 29.2841 282.174 25.5399C286.304 20.0898 287.935 13.4717 287.935 5.82408V3.82408H259.743ZM265.144 34.8481C279.682 29.4217 285.372 20.5456 285.895 7.82408C285.922 7.16767 285.935 6.50102 285.935 5.82408H261.743V11.7601H278.175C278.103 12.4401 278.002 13.1068 277.871 13.7601C277.848 13.8731 277.825 13.9858 277.8 14.098C277.653 14.7706 277.472 15.4287 277.255 16.0721C277.25 16.087 277.245 16.1018 277.24 16.1167L259.111 16.6881L260.175 22.5121L274.247 21.446C273.621 22.1969 272.912 22.9195 272.113 23.6135C269.483 25.8968 265.876 27.8694 261.035 29.5125C260.414 29.7231 259.773 29.9283 259.111 30.1281L261.911 35.9521C262.924 35.6357 263.9 35.3053 264.839 34.9607C264.941 34.9233 265.043 34.8858 265.144 34.8481ZM274.287 47.2641V36.8481H266.839V53.2001H302.679V47.2641H274.287ZM291.887 0.184082H303.391V41.8721H291.887V0.184082ZM293.887 2.18408V39.8721H301.391V2.18408H293.887Z" fill="#221A1A"/>
<path fill-rule="evenodd" clip-rule="evenodd" d="M240.372 0.12793H251.876V55.9839H240.372V40.2879L236.373 46.0329L234.885 45.415C229.844 43.3222 226.035 39.5848 223.427 35.0417C220.836 39.9371 216.962 43.9881 211.75 46.2434L210.249 46.8931L203.958 37.8565L206.163 36.8703C213.718 33.4903 217.452 25.6556 217.523 18.4639H206.716V8.58393H217.524V1.30393H228.972V8.58393H239.556V18.4639H228.973C229.048 25.2031 232.78 32.754 240.372 35.999V0.12793ZM242.372 53.9839H249.876V2.12793H242.372V53.9839ZM237.556 16.4639V10.5839H226.972V3.30393H219.524V10.5839H208.716V16.4639H219.524V18.2559C219.524 18.3252 219.523 18.3945 219.523 18.4639C219.514 19.4717 219.438 20.4944 219.295 21.5192C218.415 27.8276 214.984 34.2221 208.779 37.7806C208.203 38.1109 207.604 38.4168 206.98 38.6959L210.956 44.4079C216.099 42.1823 219.885 37.9698 222.288 32.8462C222.681 32.009 223.037 31.1475 223.355 30.2663C223.696 31.1374 224.076 31.9876 224.495 32.8119C226.921 37.5858 230.653 41.4924 235.652 43.5679L239.628 37.8559C238.996 37.5875 238.388 37.2926 237.805 36.9735C231.672 33.619 228.216 27.5986 227.252 21.6795C227.076 20.5986 226.983 19.5212 226.973 18.4639C226.972 18.3945 226.972 18.3252 226.972 18.2559V16.4639H237.556Z" fill="#221A1A"/>
<path fill-rule="evenodd" clip-rule="evenodd" d="M159.232 1.02393H170.568V4.43992H186.784V1.02393H198.176V21.1839H204.112V31.0079H198.456V46.1039H199.8V55.6479H158.672V39.4079H158.616V31.0079H153.24V21.1839H159.232V1.02393ZM189.12 37.4079V40.0399H160.672V53.6479H197.8V48.1039H168.008V45.1359H196.456V31.9759H160.616V37.4079H189.12ZM168.568 6.43992V3.02393H161.232V20.3839H196.176V3.02393H188.784V6.43992H168.568ZM168.568 14.8959V11.8719H188.784V14.8959H168.568ZM155.24 23.1839V29.0079H202.112V23.1839H155.24Z" fill="#221A1A"/>
<path fill-rule="evenodd" clip-rule="evenodd" d="M103.292 4.99993H132.1V43.3839H103.292V4.99993ZM134.876 0.12793H146.38V19.6719H153.884V29.8319H146.38V55.9839H134.876V0.12793ZM144.38 27.8319H151.884V21.6719H144.38V2.12793H136.876V53.9839H144.38V27.8319ZM112.628 12.8239H122.764V35.5039H112.628V12.8239ZM114.628 33.5039H120.764V14.8239H114.628V33.5039ZM105.292 6.99993V41.3839H130.1V6.99993H105.292Z" fill="#221A1A"/>
<path fill-rule="evenodd" clip-rule="evenodd" d="M65.0886 12.432V26.04H94.1527V31.976H57.6966V6.38403H93.7607V12.432H65.0886ZM55.6966 4.38403H95.7607V14.432H67.0886V24.04H96.1527V33.976H55.6966V4.38403ZM52.2646 41.664V47.768H99.1927V41.664H52.2646ZM50.2646 39.664H101.193V49.768H50.2646V39.664Z" fill="#221A1A"/>
<path fill-rule="evenodd" clip-rule="evenodd" d="M2.09311 41.8879H5.78911C12.2851 41.8879 17.9971 41.7199 24.6611 40.4879L24.0451 34.4959C23.3768 34.6122 22.7182 34.7181 22.0673 34.8147C18.3406 35.3679 14.8708 35.6136 11.3171 35.7164C10.6541 35.7355 9.98817 35.7497 9.31711 35.76V27.0479H20.3491V7.22393H2.03711V13.1039H13.1811V21.2239H2.09311V41.8879ZM11.1811 19.2239H0.0931096V43.8879H5.78911C12.3217 43.8879 18.1788 43.7202 25.0247 42.4546L25.6291 42.3429V53.5199H36.1571V55.9839H47.2131V0.12793H36.1571V1.07993H25.6291V17.7679H22.3491V5.22393H0.0371094V15.1039H11.1811V19.2239ZM22.3491 27.8719V29.0479H11.3171V33.7155C15.4067 33.5954 19.3467 33.283 23.7024 32.5255L25.6291 32.1904V27.8719H22.3491ZM27.6291 25.8719V51.5199H34.5171V3.07993H27.6291V19.7679H22.4771V25.8719H27.6291ZM38.1571 2.12793V53.9839H45.2131V2.12793H38.1571Z" fill="#221A1A"/>
</svg>
