<svg width="306" height="56" viewBox="0 0 306 56" fill="none" xmlns="http://www.w3.org/2000/svg">
<path d="M2.63998 35.7839H6.33598C12.608 35.7839 18.152 35.6159 24.592 34.4959L25.208 40.4879C18.544 41.7199 12.832 41.8879 6.33598 41.8879H2.63998V35.7839ZM2.58398 7.22393H20.896V27.0479H9.86398V38.1359H2.63998V21.2239H13.728V13.1039H2.58398V7.22393ZM38.704 2.12793H45.76V53.9839H38.704V2.12793ZM23.024 19.7679H31.088V25.8719H23.024V19.7679ZM28.176 3.07993H35.064V51.5199H28.176V3.07993Z" fill="#FFA400"/>
<path d="M58.2436 26.0399H94.6996V31.9759H58.2436V26.0399ZM52.8116 41.6639H99.7396V47.7679H52.8116V41.6639ZM58.2436 6.38393H94.3076V12.4319H65.6356V28.5039H58.2436V6.38393Z" fill="#FFA400"/>
<path d="M105.839 6.99993H130.647V41.3839H105.839V6.99993ZM123.311 12.8239H113.175V35.5039H123.311V12.8239ZM137.423 2.12793H144.927V53.9839H137.423V2.12793ZM143.247 21.6719H152.431V27.8319H143.247V21.6719Z" fill="#FFA400"/>
<path d="M166.147 28.4479H173.539V43.0079H166.147V28.4479ZM184.963 28.4479H192.411V43.0079H184.963V28.4479ZM155.843 41.9439H202.771V47.9919H155.843V41.9439ZM179.251 4.64793C190.395 4.64793 198.627 10.1359 198.627 18.5919C198.627 27.0479 190.395 32.4799 179.251 32.4799C168.051 32.4799 159.875 27.0479 159.875 18.5919C159.875 10.1359 168.051 4.64793 179.251 4.64793ZM179.251 10.4719C172.027 10.4719 167.211 13.4399 167.211 18.5919C167.211 23.6879 172.027 26.7119 179.251 26.7119C186.475 26.7119 191.291 23.6879 191.291 18.5919C191.291 13.4399 186.475 10.4719 179.251 10.4719Z" fill="#FFA400"/>
<path d="M242.918 2.12793H250.422V53.9839H242.918V2.12793ZM220.07 15.5679H225.95V18.2559C225.95 29.2319 221.078 40.2639 211.502 44.4079L207.526 38.6959C216.038 34.8879 220.07 26.0959 220.07 18.2559V15.5679ZM221.694 15.5679H227.518V18.2559C227.518 25.7039 231.606 34.2159 240.174 37.8559L236.198 43.5679C226.622 39.5919 221.694 28.8959 221.694 18.2559V15.5679ZM209.262 10.5839H238.102V16.4639H209.262V10.5839ZM220.07 3.30393H227.518V13.6079H220.07V3.30393Z" fill="#FFA400"/>
<path d="M278.866 5.82393H286.482C286.482 20.5519 280.21 30.4079 262.458 35.9519L259.658 30.1279C274.498 25.6479 278.866 18.4239 278.866 8.90393V5.82393ZM262.29 5.82393H283.234V11.7599H262.29V5.82393ZM279.202 16.0719V21.1119L260.722 22.5119L259.658 16.6879L279.202 16.0719ZM294.434 2.18393H301.938V39.8719H294.434V2.18393ZM267.386 47.2639H303.226V53.1999H267.386V47.2639ZM267.386 36.8479H274.834V50.7359H267.386V36.8479Z" fill="#FFA400"/>
<path fill-rule="evenodd" clip-rule="evenodd" d="M2.63998 41.8879H6.33598C12.832 41.8879 18.544 41.7199 25.208 40.4879L24.592 34.4959C23.9237 34.6122 23.265 34.7181 22.6142 34.8147C18.8875 35.3679 15.4177 35.6136 11.864 35.7164C11.201 35.7355 10.535 35.7497 9.86399 35.76V27.0479H20.896V7.22393H2.58398V13.1039H13.728V21.2239H2.63998V41.8879ZM11.728 19.2239H0.639985V43.8879H6.33598C12.8685 43.8879 18.7257 43.7202 25.5716 42.4546L26.176 42.3429V53.5199H36.704V55.9839H47.76V0.12793H36.704V1.07993H26.176V17.7679H22.896V5.22393H0.583984V15.1039H11.728V19.2239ZM22.896 27.8719V29.0479H11.864V33.7155C15.9535 33.5954 19.8936 33.283 24.2493 32.5255L26.176 32.1904V27.8719H22.896ZM28.176 25.8719V51.5199H35.064V3.07993H28.176V19.7679H23.024V25.8719H28.176ZM58.2436 31.9759H94.6996V26.0399H65.6356V12.4319H94.3076V6.38393H58.2436V31.9759ZM67.6356 14.4319H96.3076V4.38393H56.2436V33.9759H96.6996V24.0399H67.6356V14.4319ZM50.8116 39.6639H101.74V49.7679H50.8116V39.6639ZM103.839 4.99993H132.647V43.3839H103.839V4.99993ZM135.423 0.12793H146.927V19.6719H154.431V29.8319H146.927V55.9839H135.423V0.12793ZM144.927 27.8319H152.431V21.6719H144.927V2.12793H137.423V53.9839H144.927V27.8319ZM113.175 12.8239H123.311V35.5039H113.175V12.8239ZM115.175 33.5039H121.311V14.8239H115.175V33.5039ZM175.539 32.2709C174.856 32.1918 174.189 32.0907 173.539 31.9683V41.9439H184.963V31.9644C184.312 32.0877 183.645 32.1895 182.963 32.2691C181.769 32.4085 180.529 32.4799 179.251 32.4799C177.972 32.4799 176.732 32.4091 175.539 32.2709ZM182.963 34.2817C181.759 34.4134 180.519 34.4799 179.251 34.4799C177.982 34.4799 176.742 34.4139 175.539 34.2833V39.9439H182.963V34.2817ZM192.411 41.9439H202.771V47.9919H155.843V41.9439H166.147V29.2235C165.75 28.9777 165.369 28.719 165.004 28.4479C164.707 28.2268 164.421 27.9973 164.147 27.7598C161.443 25.4188 159.875 22.2954 159.875 18.5919C159.875 10.1359 168.051 4.64793 179.251 4.64793C190.395 4.64793 198.627 10.1359 198.627 18.5919C198.627 22.2615 197.077 25.3616 194.411 27.6954C194.113 27.9559 193.802 28.2068 193.477 28.4479C193.136 28.7011 192.78 28.9435 192.411 29.1748V41.9439ZM194.411 30.2421C198.24 27.5044 200.627 23.4926 200.627 18.5919C200.627 13.631 198.181 9.56713 194.269 6.81343C190.402 4.09127 185.126 2.64793 179.251 2.64793C173.35 2.64793 168.072 4.09049 164.21 6.81453C160.302 9.571 157.875 13.6359 157.875 18.5919C157.875 23.5211 160.276 27.5552 164.147 30.2967V39.9439H153.843V49.9919H204.771V39.9439H194.411V30.2421ZM171.621 14.2708C170.03 15.3177 169.211 16.7431 169.211 18.5919C169.211 20.4078 170.025 21.8371 171.625 22.8946C173.299 24.0015 175.882 24.7119 179.251 24.7119C182.62 24.7119 185.202 24.0015 186.877 22.8946C188.476 21.8371 189.291 20.4078 189.291 18.5919C189.291 16.7431 188.472 15.3177 186.881 14.2708C185.209 13.171 182.627 12.4719 179.251 12.4719C175.875 12.4719 173.293 13.171 171.621 14.2708ZM240.918 0.12793H252.422V55.9839H240.918V40.2879L236.92 46.0329L235.432 45.415C230.391 43.3222 226.582 39.5848 223.974 35.0417C221.383 39.9371 217.508 43.9881 212.297 46.2434L210.796 46.8931L204.505 37.8565L206.71 36.8703C214.265 33.4903 217.999 25.6556 218.069 18.4639H207.262V8.58393H218.07V1.30393H229.518V8.58393H240.102V18.4639H229.52C229.595 25.2031 233.327 32.754 240.918 35.999V0.12793ZM242.918 53.9839H250.422V2.12793H242.918V53.9839ZM238.102 16.4639V10.5839H227.518V3.30393H220.07V10.5839H209.262V16.4639H220.07V18.2559C220.07 18.3252 220.07 18.3945 220.07 18.4639C220.06 19.4717 219.985 20.4944 219.842 21.5192C218.962 27.8276 215.53 34.2221 209.326 37.7806C208.75 38.1109 208.15 38.4168 207.526 38.6959L211.502 44.4079C216.646 42.1823 220.432 37.9698 222.835 32.8462C223.228 32.009 223.583 31.1475 223.902 30.2663C224.243 31.1374 224.623 31.9876 225.042 32.8119C227.468 37.5858 231.2 41.4924 236.198 43.5679L240.174 37.8559C239.543 37.5875 238.935 37.2926 238.352 36.9735C232.219 33.619 228.762 27.5986 227.799 21.6795C227.623 20.5986 227.53 19.5212 227.52 18.4639C227.519 18.3945 227.518 18.3252 227.518 18.2559V16.4639H238.102ZM260.29 3.82393V13.7599H276.374C276.343 13.8952 276.311 14.0295 276.278 14.1631L257.273 14.7621L259.078 24.6422L268.951 23.8942C266.469 25.5027 263.245 26.9559 259.08 28.2133L256.843 28.8886L261.404 38.3762L263.054 37.861C263.852 37.6118 264.629 37.3536 265.386 37.0862V55.1999H305.226V45.2639H276.834V34.8479H270.803C275.954 32.3632 279.884 29.284 282.721 25.5398C286.851 20.0896 288.482 13.4715 288.482 5.82393V3.82393H260.29ZM265.69 34.8479C280.228 29.4215 285.918 20.5454 286.442 7.82393C286.469 7.16752 286.482 6.50087 286.482 5.82393H262.29V11.7599H278.722C278.65 12.4399 278.549 13.1066 278.418 13.7599C278.395 13.873 278.372 13.9856 278.347 14.0979C278.2 14.7704 278.019 15.4285 277.802 16.0719C277.797 16.0868 277.792 16.1017 277.786 16.1165L259.658 16.6879L260.722 22.5119L274.794 21.4459C274.168 22.1967 273.459 22.9194 272.66 23.6133C270.03 25.8966 266.422 27.8693 261.581 29.5123C260.961 29.723 260.32 29.9282 259.658 30.1279L262.458 35.9519C263.471 35.6355 264.447 35.3051 265.386 34.9605C265.488 34.9232 265.589 34.8856 265.69 34.8479ZM274.834 47.2639V36.8479H267.386V53.1999H303.226V47.2639H274.834ZM292.434 0.183929H303.938V41.8719H292.434V0.183929ZM38.704 2.12793V53.9839H45.76V2.12793H38.704ZM52.8116 41.6639V47.7679H99.7396V41.6639H52.8116ZM105.839 6.99993V41.3839H130.647V6.99993H105.839ZM167.211 18.5919C167.211 13.4399 172.027 10.4719 179.251 10.4719C186.475 10.4719 191.291 13.4399 191.291 18.5919C191.291 23.6879 186.475 26.7119 179.251 26.7119C172.027 26.7119 167.211 23.6879 167.211 18.5919ZM294.434 2.18393V39.8719H301.938V2.18393H294.434Z" fill="#2E2320"/>
</svg>
