<svg width="203" height="56" viewBox="0 0 203 56" fill="none" xmlns="http://www.w3.org/2000/svg">
<path d="M160.056 36.2319H164.536C173.608 36.2319 180.552 36.0639 188.56 34.8879L189.232 40.7679C181.112 42.0559 173.776 42.2799 164.536 42.2799H160.056V36.2319ZM160.056 6.43993H186.32V12.4879H167.448V38.1919H160.056V6.43993ZM165.768 20.8319H184.136V26.6559H165.768V20.8319ZM192.984 2.12793H200.488V53.9839H192.984V2.12793Z" fill="#F49300"/>
<path d="M143.316 2.12793H150.428V53.9839H143.316V2.12793ZM122.764 22.0079H133.852V27.8879H122.764V22.0079ZM132.396 3.24793H139.34V51.6879H132.396V3.24793ZM121.084 8.23193H128.252C128.252 23.0159 123.828 34.7759 109.268 43.2319L105.068 38.0239C116.884 30.9119 121.084 22.2879 121.084 9.74393V8.23193ZM107.98 8.23193H123.436V14.1679H107.98V8.23193Z" fill="#F49300"/>
<path d="M91.6882 2.12793H98.7442V53.9839H91.6882V2.12793ZM74.6082 19.8239H83.1762V25.8719H74.6082V19.8239ZM81.2162 2.96793H88.1602V51.6319H81.2162V2.96793ZM63.4082 10.5839H69.0082V15.9039C69.0082 27.5519 65.8162 39.1439 57.5842 44.2959L53.1602 38.8079C60.7762 34.0479 63.4082 24.7519 63.4082 15.9039V10.5839ZM65.0882 10.5839H70.6322V15.9039C70.6322 24.5279 73.2082 33.2639 80.7122 37.6319L76.3442 43.0639C68.1122 38.1919 65.0882 27.3279 65.0882 15.9039V10.5839ZM55.1202 7.33593H78.2482V13.3279H55.1202V7.33593Z" fill="#F49300"/>
<path d="M2.76465 42.224H49.6926V48.272H2.76465V42.224ZM22.4207 32.424H29.8687V44.688H22.4207V32.424ZM8.02865 5.48804H44.4286V22.736H15.5326V31.472H8.14065V16.912H37.0367V11.368H8.02865V5.48804ZM8.14065 28.504H45.6046V34.496H8.14065V28.504Z" fill="#F49300"/>
<path fill-rule="evenodd" clip-rule="evenodd" d="M160.056 42.2799H164.536C173.776 42.2799 181.112 42.0559 189.232 40.7679L188.56 34.8879C187.892 34.9859 187.232 35.0769 186.578 35.1614C180.856 35.9002 175.557 36.1409 169.448 36.2085C168.791 36.2158 168.125 36.2211 167.448 36.2248V26.6559H184.136V20.8319H167.448V12.4879H186.32V6.43993H160.056V42.2799ZM169.448 14.4879H188.32V4.43993H158.056V44.2799H164.536C173.805 44.2799 181.267 44.0564 189.545 42.7432L190.984 42.515V55.9839H202.488V0.12793H190.984V38.484L190.312 32.6091L188.269 32.9092C181.895 33.8452 176.201 34.133 169.448 34.2084V28.6559H186.136V18.8319H169.448V14.4879ZM192.984 2.12793V53.9839H200.488V2.12793H192.984Z" fill="#221A1A"/>
<path fill-rule="evenodd" clip-rule="evenodd" d="M141.316 0.12793H152.428V55.9839H141.316V53.6879H130.396V29.8879H125.548C122.398 35.7459 117.481 40.7749 110.272 44.9614L108.788 45.8233L102.071 37.4935L104.036 36.3104C109.724 32.8873 113.437 29.188 115.753 24.9601C117.192 22.3325 118.128 19.4348 118.631 16.1679H105.98V6.23193H130.252V8.23193C130.252 12.3445 129.919 16.2778 129.117 20.0079H130.396V1.24793H141.316V0.12793ZM132.396 22.0079H126.563C126.748 21.3496 126.917 20.6829 127.069 20.0079C127.766 16.9214 128.126 13.6615 128.224 10.2319C128.243 9.57154 128.252 8.90487 128.252 8.23193H107.98V14.1679H120.89C120.827 14.8468 120.748 15.5133 120.653 16.1679C119.4 24.7953 115.293 31.3573 106.773 36.9524C106.223 37.3135 105.655 37.6706 105.068 38.0239L109.268 43.2319C115.797 39.4399 120.288 34.9835 123.256 29.8879C123.638 29.2318 123.995 28.5652 124.327 27.8879H132.396V51.6879H139.34V3.24793H132.396V22.0079ZM143.316 2.12793V53.9839H150.428V2.12793H143.316Z" fill="#221A1A"/>
<path fill-rule="evenodd" clip-rule="evenodd" d="M89.6885 0.12793H100.745V55.9839H89.6885V53.6319H79.2165V42.6839L76.8172 45.6677L75.3259 44.7851C71.7285 42.656 69.0734 39.5463 67.1737 35.8562C65.2384 40.0189 62.4645 43.6012 58.6455 45.9913L57.1412 46.9328L50.188 38.3073L52.1005 37.1119C58.8446 32.8969 61.4085 24.4876 61.4085 15.9039V15.3279H53.1205V5.33593H79.2165V0.967934H89.6885V0.12793ZM79.2165 15.3279H72.6325V15.9039C72.6325 16.5476 72.6474 17.1881 72.6778 17.8239H79.2165V15.3279ZM81.2165 19.8239H74.6085V25.8719H81.2165V51.6319H88.1605V2.96793H81.2165V19.8239ZM79.2165 34.0936V27.8719H74.8224C75.8622 30.2742 77.3045 32.3967 79.2165 34.0936ZM72.6604 27.8719C72.643 27.8272 72.6257 27.7824 72.6085 27.7376C71.7057 25.3815 71.1456 22.839 70.8616 20.237C70.7052 18.8036 70.6325 17.3522 70.6325 15.9039V13.3279H78.2485V7.33593H55.1205V13.3279H63.4085V15.9039C63.4085 17.2501 63.3476 18.6067 63.2174 19.956C62.5568 26.8065 60.1123 33.4718 54.8002 37.6552C54.2813 38.0639 53.7351 38.4488 53.1605 38.8079L57.5845 44.2959C61.4601 41.8704 64.2185 38.0175 66.0528 33.4033C66.4396 32.4302 66.7853 31.4232 67.0918 30.3886C67.4194 31.4167 67.7907 32.4122 68.2081 33.369C70.0021 37.4808 72.6483 40.8764 76.3445 43.0639L80.7125 37.6319C80.1902 37.3279 79.6918 37.0028 79.2165 36.6579C79.156 36.614 79.0958 36.5698 79.036 36.5252C76.0483 34.299 73.9912 31.2848 72.6604 27.8719ZM91.6885 2.12793V53.9839H98.7445V2.12793H91.6885Z" fill="#221A1A"/>
<path fill-rule="evenodd" clip-rule="evenodd" d="M2.76465 42.224V48.272H49.6926V42.224H29.8687V34.496H45.6046V28.504H15.5326V22.736H44.4286V5.48804H8.02865V11.368H37.0367V16.912H8.14065V34.496H22.4207V42.224H2.76465ZM20.4207 40.224H0.764648V50.272H51.6926V40.224H31.8687V36.496H47.6046V26.504H17.5326V24.736H46.4286V3.48804H6.02865V13.368H35.0367V14.912H6.14065V36.496H20.4207V40.224Z" fill="#221A1A"/>
</svg>
