<svg width="307" height="57" viewBox="0 0 307 57" fill="none" xmlns="http://www.w3.org/2000/svg">
<path d="M280.319 5.82408H287.935C287.935 20.5521 281.663 30.4081 263.911 35.9521L261.111 30.1281C275.951 25.6481 280.319 18.4241 280.319 8.90408V5.82408ZM263.743 5.82408H284.687V11.7601H263.743V5.82408ZM280.655 16.0721V21.1121L262.175 22.5121L261.111 16.6881L280.655 16.0721ZM295.887 2.18408H303.391V39.8721H295.887V2.18408ZM268.839 47.2641H304.679V53.2001H268.839V47.2641ZM268.839 36.8481H276.287V50.7361H268.839V36.8481Z" fill="#D7A815"/>
<path d="M244.371 2.12793H251.875V53.9839H244.371V2.12793ZM221.523 15.5679H227.403V18.2559C227.403 29.2319 222.531 40.2639 212.955 44.4079L208.979 38.6959C217.491 34.8879 221.523 26.0959 221.523 18.2559V15.5679ZM223.147 15.5679H228.971V18.2559C228.971 25.7039 233.059 34.2159 241.627 37.8559L237.651 43.5679C228.075 39.5919 223.147 28.8959 223.147 18.2559V15.5679ZM210.715 10.5839H239.555V16.4639H210.715V10.5839ZM221.523 3.30393H228.971V13.6079H221.523V3.30393Z" fill="#D7A815"/>
<path d="M192.856 2.12793H200.36V33.9919H192.856V2.12793ZM164.968 36.2319H200.36V53.9839H192.856V42.2239H164.968V36.2319ZM159.928 25.8719H164.464C174.544 25.8719 181.096 25.6479 188.6 24.4719L189.44 30.3519C181.712 31.6959 174.824 31.8639 164.464 31.8639H159.928V25.8719ZM159.872 4.98393H183.728V20.9439H167.264V28.6719H159.928V15.3999H176.392V10.9199H159.872V4.98393Z" fill="#D7A815"/>
<path d="M139.1 2.12793H146.548V27.9999H139.1V2.12793ZM144.476 12.3759H153.436V18.4799H144.476V12.3759ZM124.26 4.03193H132.492C132.492 17.8639 123.756 26.2079 108.132 29.3999L105.444 23.2959C118.604 20.8879 124.26 14.9519 124.26 8.45593V4.03193ZM108.02 4.03193H129.02V9.96793H108.02V4.03193ZM112.276 30.0159H146.548V44.3519H119.78V50.6239H112.388V38.8639H139.212V35.8399H112.276V30.0159ZM112.388 47.6559H148.06V53.4799H112.388V47.6559Z" fill="#D7A815"/>
<path d="M89.7687 2.07178H97.2727V54.0958H89.7687V2.07178ZM69.3287 5.71178C77.1687 5.71178 82.9367 12.8798 82.9367 24.1918C82.9367 35.6158 77.1687 42.7838 69.3287 42.7838C61.4887 42.7838 55.7207 35.6158 55.7207 24.1918C55.7207 12.8798 61.4887 5.71178 69.3287 5.71178ZM69.3287 12.4878C65.4647 12.4878 62.8327 16.5758 62.8327 24.1918C62.8327 31.9198 65.4647 36.0638 69.3287 36.0638C73.1927 36.0638 75.7687 31.9198 75.7687 24.1918C75.7687 16.5758 73.1927 12.4878 69.3287 12.4878Z" fill="#D7A815"/>
<path d="M2.74902 41.8319H49.677V47.9359H2.74902V41.8319ZM22.237 30.2959H29.629V43.4559H22.237V30.2959ZM21.957 4.98389H28.453V8.73589C28.453 19.7679 20.445 29.5119 6.89302 31.9759L3.81302 25.7599C15.629 23.8559 21.957 15.9039 21.957 8.73589V4.98389ZM23.413 4.98389H29.909V8.73589C29.909 16.0719 36.237 23.8559 48.109 25.7599L45.029 31.9759C31.421 29.4559 23.413 19.9359 23.413 8.73589V4.98389Z" fill="#D7A815"/>
<path fill-rule="evenodd" clip-rule="evenodd" d="M261.743 3.82408V13.7601H277.827C277.796 13.8953 277.765 14.0297 277.731 14.1633L258.726 14.7623L260.531 24.6424L270.405 23.8944C267.922 25.5028 264.698 26.9561 260.533 28.2134L258.296 28.8887L262.858 38.3764L264.508 37.8612C265.305 37.612 266.083 37.3538 266.839 37.0863V55.2001H306.679V45.2641H278.287V34.8481H272.257C277.407 32.3633 281.337 29.2841 284.174 25.5399C288.304 20.0898 289.935 13.4717 289.935 5.82408V3.82408H261.743ZM267.144 34.8481C281.682 29.4217 287.372 20.5456 287.895 7.82408C287.922 7.16767 287.935 6.50102 287.935 5.82408H263.743V11.7601H280.175C280.103 12.4401 280.002 13.1068 279.871 13.7601C279.848 13.8731 279.825 13.9858 279.8 14.098C279.653 14.7706 279.472 15.4287 279.255 16.0721C279.25 16.087 279.245 16.1018 279.24 16.1167L261.111 16.6881L262.175 22.5121L276.247 21.446C275.621 22.1969 274.912 22.9195 274.113 23.6135C271.483 25.8968 267.876 27.8694 263.035 29.5125C262.414 29.7231 261.773 29.9283 261.111 30.1281L263.911 35.9521C264.924 35.6357 265.9 35.3053 266.839 34.9607C266.941 34.9233 267.043 34.8858 267.144 34.8481ZM276.287 47.2641V36.8481H268.839V53.2001H304.679V47.2641H276.287ZM293.887 0.184082H305.391V41.8721H293.887V0.184082ZM295.887 2.18408V39.8721H303.391V2.18408H295.887Z" fill="#221A1A"/>
<path fill-rule="evenodd" clip-rule="evenodd" d="M242.372 0.12793H253.876V55.9839H242.372V40.2879L238.373 46.0329L236.885 45.415C231.844 43.3222 228.035 39.5848 225.427 35.0417C222.836 39.9371 218.962 43.9881 213.75 46.2434L212.249 46.8931L205.958 37.8565L208.163 36.8703C215.718 33.4903 219.452 25.6556 219.523 18.4639H208.716V8.58393H219.524V1.30393H230.972V8.58393H241.556V18.4639H230.973C231.048 25.2031 234.78 32.754 242.372 35.999V0.12793ZM244.372 53.9839H251.876V2.12793H244.372V53.9839ZM239.556 16.4639V10.5839H228.972V3.30393H221.524V10.5839H210.716V16.4639H221.524V18.2559C221.524 18.3252 221.523 18.3945 221.523 18.4639C221.514 19.4717 221.438 20.4944 221.295 21.5192C220.415 27.8276 216.984 34.2221 210.779 37.7806C210.203 38.1109 209.604 38.4168 208.98 38.6959L212.956 44.4079C218.099 42.1823 221.885 37.9698 224.288 32.8462C224.681 32.009 225.037 31.1475 225.355 30.2663C225.696 31.1374 226.076 31.9876 226.495 32.8119C228.921 37.5858 232.653 41.4924 237.652 43.5679L241.628 37.8559C240.996 37.5875 240.388 37.2926 239.805 36.9735C233.672 33.619 230.216 27.5986 229.252 21.6795C229.076 20.5986 228.983 19.5212 228.973 18.4639C228.972 18.3945 228.972 18.3252 228.972 18.2559V16.4639H239.556Z" fill="#221A1A"/>
<path fill-rule="evenodd" clip-rule="evenodd" d="M190.856 0.12793H202.36V55.9839H190.856V44.2239H162.968V34.2319H190.856V32.1357L189.783 32.3224C181.871 33.6984 174.832 33.8639 164.464 33.8639H157.928V13.3999H174.392V12.9199H157.872V2.98393H185.728V22.8651C186.574 22.7541 187.426 22.6315 188.29 22.496L190.293 22.1822L190.856 26.1218V0.12793ZM185.112 22.9439H169.264V23.8494C175.402 23.7838 180.197 23.5572 185.112 22.9439ZM169.264 25.8495C168.612 25.8565 167.946 25.8616 167.264 25.8651V20.9439H183.728V4.98393H159.872V10.9199H176.392V15.3999H159.928V31.8639H164.464C174.824 31.8639 181.712 31.6959 189.44 30.352C189.44 30.352 189.44 30.352 189.44 30.352L188.6 24.4725C187.934 24.5769 187.276 24.6732 186.621 24.7631C181.143 25.5159 175.97 25.7784 169.264 25.8495ZM192.856 42.2239V53.9839H200.36V36.2319H164.968V42.2239H192.856ZM192.856 2.12793V33.9919H200.36V2.12793H192.856Z" fill="#221A1A"/>
<path fill-rule="evenodd" clip-rule="evenodd" d="M137.1 0.12793H148.548V10.3759H155.436V20.4799H148.548V45.6559H150.06V55.4799H110.388V37.8399H110.276V30.976C109.703 31.1112 109.122 31.239 108.533 31.3595L106.952 31.6824L102.593 21.7844L105.084 21.3286C114.961 19.5213 119.8 15.8423 121.512 11.9679H106.02V2.03193H134.492V4.03193C134.492 11.4054 132.147 17.4741 127.598 22.107C125.257 24.4921 122.376 26.4522 119.018 28.0159H137.1V0.12793ZM112.276 30.0159V35.8399H139.212V38.8639H112.388V53.4799H148.06V47.6559H119.78V44.3519H146.548V30.0159H112.276ZM113.493 28.0159C125.056 24.3288 131.72 17.0649 132.429 6.03193C132.471 5.37849 132.492 4.71185 132.492 4.03193H108.02V9.96793H124.156C124.061 10.6447 123.901 11.3125 123.674 11.9679C122.036 16.6937 116.902 20.7745 107.45 22.889C106.802 23.034 106.133 23.1698 105.444 23.2959L108.132 29.3999C108.862 29.2508 109.577 29.0905 110.276 28.9189C110.957 28.7518 111.624 28.574 112.276 28.3855C112.688 28.2666 113.093 28.1434 113.493 28.0159ZM146.548 18.4799H153.436V12.3759H146.548V2.12793H139.1V27.9999H146.548V18.4799Z" fill="#221A1A"/>
<path fill-rule="evenodd" clip-rule="evenodd" d="M87.7687 0.0717773H99.2727V56.0958H87.7687V0.0717773ZM80.6685 9.50421C83.4141 13.1385 84.9367 18.2147 84.9367 24.1918C84.9367 30.2209 83.4161 35.3246 80.671 38.974C77.8979 42.6609 73.9203 44.7838 69.3287 44.7838C64.7371 44.7838 60.7596 42.6609 57.9864 38.974C55.2414 35.3246 53.7207 30.2209 53.7207 24.1918C53.7207 18.2147 55.2433 13.1385 57.9889 9.50421C60.7618 5.83372 64.738 3.71178 69.3287 3.71178C73.9194 3.71178 77.8956 5.83372 80.6685 9.50421ZM66.3633 16.4846C65.4651 18.0385 64.8327 20.5714 64.8327 24.1918C64.8327 27.8717 65.4662 30.4509 66.3693 32.0355C67.2277 33.5417 68.2518 34.0638 69.3287 34.0638C70.4005 34.0638 71.409 33.5474 72.2549 32.0447C73.1472 30.4595 73.7687 27.8779 73.7687 24.1918C73.7687 20.5652 73.1483 18.0299 72.2608 16.4754C71.4213 15.0049 70.4144 14.4878 69.3287 14.4878C68.2379 14.4878 67.2154 15.0105 66.3633 16.4846ZM89.7687 2.07178V54.0958H97.2727V2.07178H89.7687ZM82.9367 24.1918C82.9367 12.8798 77.1687 5.71178 69.3287 5.71178C61.4887 5.71178 55.7207 12.8798 55.7207 24.1918C55.7207 35.6158 61.4887 42.7838 69.3287 42.7838C77.1687 42.7838 82.9367 35.6158 82.9367 24.1918ZM62.8327 24.1918C62.8327 16.5758 65.4647 12.4878 69.3287 12.4878C73.1927 12.4878 75.7687 16.5758 75.7687 24.1918C75.7687 31.9198 73.1927 36.0638 69.3287 36.0638C65.4647 36.0638 62.8327 31.9198 62.8327 24.1918Z" fill="#221A1A"/>
<path fill-rule="evenodd" clip-rule="evenodd" d="M2.74902 41.8319V47.9359H49.677V41.8319H29.629V30.2959H22.237V41.8319H2.74902ZM20.237 39.8319H0.749023V49.9359H51.677V39.8319H31.629V28.5295C35.1841 31.1154 39.5773 33.0003 44.6648 33.9425L46.1503 34.2175L51.1065 24.2151L48.4257 23.7851C37.2574 21.994 31.909 14.8423 31.909 8.73589V2.98389H19.957V8.73589C19.957 14.6882 14.5923 21.9971 3.49485 23.7854L0.816451 24.2169L5.76943 34.213L7.25079 33.9436C12.3169 33.0225 16.6932 31.1258 20.237 28.5253V39.8319ZM20.5451 28.2959H31.3126C29.1958 26.709 27.3863 24.869 25.9158 22.8291C24.4494 24.864 22.6488 26.706 20.5451 28.2959ZM24.7332 21.0231C21.1214 26.4237 14.9989 30.5021 6.89302 31.9759L3.81302 25.7599C4.51033 25.6475 5.18853 25.5141 5.84744 25.361C14.8036 23.2802 20.1967 17.5675 21.5933 11.7488C21.835 10.7416 21.957 9.73116 21.957 8.73589V4.98389H29.909V8.73589C29.909 9.74446 30.0286 10.7615 30.2658 11.7706C31.6524 17.6696 37.0571 23.2961 46.0729 25.3644C46.7324 25.5157 47.4111 25.648 48.109 25.7599L45.029 31.9759C36.8615 30.4634 30.7114 26.4292 27.0992 21.0237C26.6691 20.38 26.2749 19.7168 25.9176 19.0362C25.5591 19.7159 25.164 20.3789 24.7332 21.0231Z" fill="#221A1A"/>
</svg>
