<svg width="305" height="57" viewBox="0 0 305 57" fill="none" xmlns="http://www.w3.org/2000/svg">
<path d="M295.055 2.18408H302.503V35.3361H295.055V2.18408ZM272.375 28.6721H279.879V38.8081H272.375V28.6721ZM260.335 31.2481L259.495 25.4801C268.791 25.4241 281.615 25.3121 292.479 23.8001L292.815 28.8961C281.727 30.9121 269.575 31.1361 260.335 31.2481ZM276.127 3.36008C283.911 3.36008 289.343 7.22408 289.343 12.9361C289.343 18.6481 283.911 22.4561 276.127 22.4561C268.343 22.4561 262.911 18.6481 262.911 12.9361C262.911 7.22408 268.343 3.36008 276.127 3.36008ZM276.127 8.84808C272.599 8.84808 270.135 10.2481 270.135 12.9361C270.135 15.5681 272.599 16.9681 276.127 16.9681C279.655 16.9681 282.119 15.5681 282.119 12.9361C282.119 10.2481 279.655 8.84808 276.127 8.84808ZM284.863 35.6721C295.951 35.6721 302.839 39.0881 302.839 44.8561C302.839 50.6801 295.951 54.0401 284.863 54.0401C273.775 54.0401 266.943 50.6801 266.943 44.8561C266.943 39.0881 273.775 35.6721 284.863 35.6721ZM284.863 41.3281C277.975 41.3281 274.447 42.4481 274.447 44.8561C274.447 47.3201 277.975 48.4961 284.863 48.4961C291.751 48.4961 295.335 47.3201 295.335 44.8561C295.335 42.4481 291.751 41.3281 284.863 41.3281Z" fill="#F7BB00"/>
<path d="M213.02 24.4161H249.756V30.3521H213.02V24.4161ZM207.812 42.1681H254.74V48.1601H207.812V42.1681ZM227.524 27.9441H234.972V43.8481H227.524V27.9441ZM213.02 6.0481H220.524V26.9921H213.02V6.0481Z" fill="#F7BB00"/>
<path d="M175.504 5.09595H182V8.84795C182 20.1039 173.992 30.0719 160.552 32.7039L157.36 26.5439C169.064 24.5279 175.504 16.2959 175.504 8.84795V5.09595ZM177.016 5.09595H183.456V8.84795C183.456 16.4639 189.84 24.5279 201.6 26.5439L198.408 32.7039C184.968 30.0719 177.016 20.2719 177.016 8.84795V5.09595ZM156.296 41.6079H203.224V47.6559H156.296V41.6079Z" fill="#F7BB00"/>
<path d="M130.764 15.7921H143.868V21.7281H130.764V15.7921ZM140.676 2.18408H148.124V40.0401H140.676V2.18408ZM113.908 47.1521H149.3V53.0881H113.908V47.1521ZM113.908 36.2881H121.356V50.1761H113.908V36.2881ZM119.06 5.26408C126.732 5.26408 132.724 10.8081 132.724 18.5361C132.724 26.2081 126.732 31.8081 119.06 31.8081C111.332 31.8081 105.34 26.2081 105.34 18.5361C105.34 10.8081 111.332 5.26408 119.06 5.26408ZM119.06 11.7601C115.308 11.7601 112.452 14.2241 112.452 18.5361C112.452 22.7921 115.308 25.3121 119.06 25.3121C122.756 25.3121 125.612 22.7921 125.612 18.5361C125.612 14.2241 122.756 11.7601 119.06 11.7601Z" fill="#F7BB00"/>
<path d="M89.1046 2.12793H96.5526V53.9839H89.1046V2.12793ZM55.9526 7.05593H63.3446V39.2559H55.9526V7.05593ZM55.9526 34.8879H60.5446C68.1046 34.8879 76.5046 34.3279 85.0726 32.6479L85.9126 38.8079C77.0086 40.6559 68.4406 41.2159 60.5446 41.2159H55.9526V34.8879Z" fill="#F7BB00"/>
<path d="M15.9172 5.71202C23.6452 5.71202 29.3012 12.88 29.3012 24.192C29.3012 35.616 23.6452 42.784 15.9172 42.784C8.1332 42.784 2.5332 35.616 2.5332 24.192C2.5332 12.88 8.1332 5.71202 15.9172 5.71202ZM15.9172 12.488C12.1652 12.488 9.6452 16.576 9.6452 24.192C9.6452 31.92 12.1652 36.064 15.9172 36.064C19.7252 36.064 22.1892 31.92 22.1892 24.192C22.1892 16.576 19.7252 12.488 15.9172 12.488ZM37.8132 2.07202H45.2052V54.096H37.8132V2.07202ZM27.1172 20.776H40.9492V26.768H27.1172V20.776Z" fill="#F7BB00"/>
<path fill-rule="evenodd" clip-rule="evenodd" d="M293.055 0.184082H304.503V37.3361H300.629C303.211 39.1325 304.839 41.6567 304.839 44.8561C304.839 48.7398 302.474 51.6198 298.91 53.4177C295.41 55.1834 290.564 56.0401 284.863 56.0401C279.163 56.0401 274.329 55.1835 270.841 53.4161C267.286 51.6144 264.943 48.7325 264.943 44.8561C264.943 41.1737 267.088 38.3806 270.375 36.5642V33.0387C266.798 33.1619 263.41 33.211 260.359 33.2479L258.608 33.2692L257.185 23.494L259.483 23.4801C262.434 23.4623 265.723 23.4388 269.18 23.3675C267.797 22.8878 266.538 22.252 265.437 21.4652C262.638 19.4646 260.911 16.5049 260.911 12.9361C260.911 9.36987 262.635 6.39831 265.431 4.38357C268.183 2.39979 271.928 1.36008 276.127 1.36008C280.327 1.36008 284.071 2.39979 286.824 4.38357C289.619 6.39831 291.343 9.36987 291.343 12.9361C291.343 16.5049 289.616 19.4646 286.817 21.4652C286.215 21.8955 285.566 22.2805 284.875 22.6196C287.376 22.4105 289.838 22.1484 292.203 21.8192L293.055 21.7006V0.184082ZM293.055 30.8852C289.39 31.5469 285.618 32.0165 281.879 32.3526V33.7565C282.844 33.7002 283.84 33.6721 284.863 33.6721C287.853 33.6721 290.607 33.9116 293.055 34.3948V30.8852ZM295.055 35.3361H302.503V2.18408H295.055V35.3361ZM293.055 36.4362C290.685 35.9343 287.935 35.6721 284.863 35.6721C283.831 35.6721 282.836 35.7017 281.879 35.76C281.192 35.802 280.525 35.8587 279.879 35.93V30.5144C280.545 30.4619 281.211 30.4054 281.879 30.3447C285.546 30.0108 289.236 29.5468 292.815 28.8961L292.479 23.8001C291.823 23.8913 291.161 23.9775 290.492 24.0588C280.862 25.2303 270.002 25.4056 261.514 25.4669C260.825 25.4719 260.151 25.4761 259.495 25.4801L260.335 31.2481C263.408 31.2108 266.804 31.1612 270.375 31.0373C271.036 31.0144 271.703 30.989 272.375 30.9606V37.799C271.698 38.1046 271.08 38.4414 270.523 38.8081C270.473 38.8408 270.424 38.8737 270.375 38.9069C268.151 40.4214 266.943 42.4308 266.943 44.8561C266.943 50.6801 273.775 54.0401 284.863 54.0401C295.951 54.0401 302.839 50.6801 302.839 44.8561C302.839 41.4637 300.457 38.8849 296.238 37.3361C295.859 37.1967 295.464 37.0657 295.055 36.9432C294.423 36.7536 293.755 36.5844 293.055 36.4362ZM272.897 11.5617C272.371 11.9029 272.135 12.3125 272.135 12.9361C272.135 13.5155 272.356 13.9141 272.889 14.2564C273.511 14.6562 274.587 14.9681 276.127 14.9681C277.668 14.9681 278.743 14.6562 279.365 14.2564C279.898 13.9141 280.119 13.5155 280.119 12.9361C280.119 12.3125 279.883 11.9029 279.357 11.5617C278.739 11.1603 277.668 10.8481 276.127 10.8481C274.586 10.8481 273.516 11.1603 272.897 11.5617ZM276.447 44.8483V44.8561C276.447 44.9364 276.454 44.9808 276.549 45.0794C276.689 45.2256 277.024 45.4674 277.725 45.7097C279.145 46.2002 281.478 46.4961 284.863 46.4961C288.247 46.4961 290.597 46.2004 292.034 45.7081C292.745 45.4645 293.088 45.2204 293.233 45.0709C293.332 44.9692 293.335 44.9269 293.335 44.8561C293.335 44.8152 293.344 44.794 293.253 44.7032C293.112 44.5622 292.771 44.3249 292.054 44.088C290.609 43.6102 288.253 43.3281 284.863 43.3281C281.473 43.3281 279.133 43.6105 277.705 44.0864C276.998 44.3221 276.664 44.5573 276.529 44.6947C276.447 44.7776 276.447 44.8028 276.447 44.8483ZM289.343 12.9361C289.343 7.22408 283.911 3.36008 276.127 3.36008C268.343 3.36008 262.911 7.22408 262.911 12.9361C262.911 18.6481 268.343 22.4561 276.127 22.4561C283.911 22.4561 289.343 18.6481 289.343 12.9361ZM270.135 12.9361C270.135 10.2481 272.599 8.84808 276.127 8.84808C279.655 8.84808 282.119 10.2481 282.119 12.9361C282.119 15.5681 279.655 16.9681 276.127 16.9681C272.599 16.9681 270.135 15.5681 270.135 12.9361ZM274.447 44.8561C274.447 42.4481 277.975 41.3281 284.863 41.3281C291.751 41.3281 295.335 42.4481 295.335 44.8561C295.335 47.3201 291.751 48.4961 284.863 48.4961C277.975 48.4961 274.447 47.3201 274.447 44.8561Z" fill="#221A1A"/>
<path fill-rule="evenodd" clip-rule="evenodd" d="M220.524 6.0481H213.02V30.3521H227.524V42.1681H207.812V48.1601H254.74V42.1681H234.972V30.3521H249.756V24.4161H220.524V6.0481ZM222.524 22.4161V4.0481H211.02V32.3521H225.524V40.1681H205.812V50.1601H256.74V40.1681H236.972V32.3521H251.756V22.4161H222.524Z" fill="#221A1A"/>
<path fill-rule="evenodd" clip-rule="evenodd" d="M183.456 8.84795C183.456 9.88566 183.574 10.9317 183.809 11.9696C185.193 18.0976 190.62 23.9428 199.565 26.123C200.225 26.2837 200.903 26.4244 201.6 26.5439L198.408 32.7039C190.324 31.1209 184.226 26.9447 180.649 21.3816C180.224 20.7208 179.835 20.0404 179.482 19.3424C179.125 20.0377 178.732 20.7163 178.304 21.376C174.705 26.9178 168.603 31.1272 160.552 32.7039L157.36 26.5439C158.056 26.424 158.734 26.2821 159.393 26.1196C168.366 23.9066 173.837 17.885 175.179 11.78C175.395 10.7997 175.504 9.81716 175.504 8.84795V5.09595H183.456V8.84795ZM179.472 23.2211C175.52 28.8473 169.134 33.0612 160.936 34.6667L159.466 34.9547L154.326 25.037L157.02 24.573C167.974 22.6863 173.504 15.125 173.504 8.84795V3.09595H185.456V8.84795C185.456 15.2868 190.923 22.6845 201.938 24.5727L204.634 25.035L199.494 34.9547L198.024 34.6667C189.792 33.0546 183.406 28.8681 179.472 23.2211ZM156.296 41.6079V47.6559H203.224V41.6079H156.296ZM154.296 39.6079H205.224V49.6559H154.296V39.6079Z" fill="#221A1A"/>
<path fill-rule="evenodd" clip-rule="evenodd" d="M131.902 13.7921C130.009 8.63862 125.046 5.26408 119.06 5.26408C111.332 5.26408 105.34 10.8081 105.34 18.5361C105.34 26.2081 111.332 31.8081 119.06 31.8081C124.861 31.8081 129.702 28.6064 131.718 23.7281C131.982 23.089 132.197 22.4212 132.36 21.7281H140.676V40.0401H148.124V2.18408H140.676V15.7921H132.461C132.324 15.1 132.137 14.4323 131.902 13.7921ZM134.016 13.7921C132.035 7.45057 126.115 3.26408 119.06 3.26408C110.316 3.26408 103.34 9.61685 103.34 18.5361C103.34 27.3938 110.311 33.8081 119.06 33.8081C125.943 33.8081 131.739 29.7901 133.861 23.7281H138.676V42.0401H150.124V0.184082H138.676V13.7921H134.016ZM113.908 53.0881H149.3V47.1521H121.356V36.2881H113.908V53.0881ZM123.356 45.1521V34.2881H111.908V55.0881H151.3V45.1521H123.356ZM115.747 14.9621C115.003 15.6879 114.452 16.8381 114.452 18.5361C114.452 20.2002 115 21.3554 115.751 22.0933C116.511 22.8399 117.636 23.3121 119.06 23.3121C120.449 23.3121 121.56 22.8448 122.317 22.0974C123.065 21.3583 123.612 20.2005 123.612 18.5361C123.612 16.8378 123.061 15.685 122.321 14.958C121.571 14.2211 120.461 13.7601 119.06 13.7601C117.624 13.7601 116.501 14.2259 115.747 14.9621ZM112.452 18.5361C112.452 14.2241 115.308 11.7601 119.06 11.7601C122.756 11.7601 125.612 14.2241 125.612 18.5361C125.612 22.7921 122.756 25.3121 119.06 25.3121C115.308 25.3121 112.452 22.7921 112.452 18.5361Z" fill="#221A1A"/>
<path fill-rule="evenodd" clip-rule="evenodd" d="M87.1046 0.12793H98.5526V55.9839H87.1046V40.6032L86.3191 40.7662C77.2447 42.6496 68.5338 43.2159 60.5446 43.2159H53.9526V5.05593H65.3446V32.8098C71.4859 32.6074 78.0415 31.9885 84.6878 30.6853L86.7679 30.2774L87.1046 32.7469V0.12793ZM65.3446 34.8109C64.6727 34.8327 64.0059 34.8496 63.3446 34.862V7.05593H55.9526V41.2159H60.5446C61.4689 41.2159 62.4025 41.2083 63.3446 41.1917C64.0071 41.1801 64.6738 41.1641 65.3446 41.1434C71.8703 40.9415 78.7838 40.2875 85.9126 38.8079L85.0726 32.6479C84.4154 32.7768 83.7591 32.8991 83.1042 33.015C76.9895 34.0975 70.9873 34.6275 65.3446 34.8109ZM89.1046 2.12793V53.9839H96.5526V2.12793H89.1046Z" fill="#221A1A"/>
<path fill-rule="evenodd" clip-rule="evenodd" d="M35.8132 0.0720215H47.2052V56.096H35.8132V28.768H30.9937C30.4288 32.8098 29.0989 36.2774 27.1156 38.9608C24.3893 42.6493 20.4657 44.784 15.9172 44.784C11.3436 44.784 7.4179 42.6517 4.69618 38.9585C2.00582 35.3079 0.533203 30.2087 0.533203 24.192C0.533203 18.2275 2.00767 13.1558 4.69865 9.52015C7.42015 5.84332 11.3445 3.71202 15.9172 3.71202C20.4648 3.71202 24.387 5.84573 27.1131 9.51789C28.9509 11.9936 30.2285 15.1366 30.8562 18.776H35.8132V0.0720215ZM37.8132 20.776H29.119C29.0435 20.0897 28.945 19.4227 28.8245 18.776C27.3097 10.6416 22.3259 5.71202 15.9172 5.71202C8.1332 5.71202 2.5332 12.88 2.5332 24.192C2.5332 35.616 8.1332 42.784 15.9172 42.784C22.5541 42.784 27.6628 37.4972 28.9731 28.768C29.0703 28.1201 29.1467 27.4531 29.2011 26.768H37.8132V54.096H45.2052V2.07202H37.8132V20.776ZM13.1216 16.4569C12.253 18.0171 11.6452 20.5605 11.6452 24.192C11.6452 27.8829 12.254 30.4726 13.1274 32.0636C13.9587 33.5779 14.9297 34.064 15.9172 34.064C16.9389 34.064 17.9054 33.5716 18.7254 32.0683C19.5923 30.479 20.1892 27.8898 20.1892 24.192C20.1892 20.5536 19.5932 18.0105 18.7311 16.4521C17.9177 14.9816 16.9531 14.488 15.9172 14.488C14.9156 14.488 13.9464 14.9754 13.1216 16.4569ZM9.6452 24.192C9.6452 16.576 12.1652 12.488 15.9172 12.488C19.7252 12.488 22.1892 16.576 22.1892 24.192C22.1892 31.92 19.7252 36.064 15.9172 36.064C12.1652 36.064 9.6452 31.92 9.6452 24.192Z" fill="#221A1A"/>
</svg>
