<svg width="310" height="56" viewBox="0 0 310 56" fill="none" xmlns="http://www.w3.org/2000/svg">
<path d="M262.063 21.8399H266.375C277.183 21.8399 283.063 21.5039 289.615 20.1039L290.399 25.9279C283.735 27.3839 277.463 27.6639 266.375 27.6639H262.063V21.8399ZM262.063 4.92792H285.247V10.7519H269.455V24.3039H262.063V4.92792ZM293.647 2.12793H301.095V29.4559H293.647V2.12793ZM299.023 12.9919H307.983V19.0399H299.023V12.9919ZM264.975 47.9359H268.447C278.191 47.9359 281.607 47.8239 285.527 46.8719L286.255 52.3599C282.111 53.3679 278.583 53.4239 268.447 53.4239H264.975V47.9359ZM264.919 31.4719H282.279V44.8559H272.199V51.7999H264.975V39.7599H275.111V37.0159H264.919V31.4719ZM284.407 31.4719H301.095V53.5919H293.759V37.2959H284.407V31.4719Z" fill="#FECC1D"/>
<path d="M209.428 6.88792H238.044V12.8239H209.428V6.88792ZM208.868 42.1679L208.083 36.0639C217.099 36.0639 229.308 35.9519 239.556 34.6639L239.948 40.0959C229.476 41.9439 217.716 42.1679 208.868 42.1679ZM213.852 11.5359H221.076V37.6879H213.852V11.5359ZM226.396 11.5359H233.62V37.6879H226.396V11.5359ZM241.908 2.12793H249.411V53.9839H241.908V2.12793ZM247.732 21.7839H256.915V27.8879H247.732V21.7839Z" fill="#FECC1D"/>
<path d="M159.144 22.1759H163.456C173.872 22.1759 179.64 22.0639 186.584 20.9999L187.2 26.7679C180.2 27.8319 174.04 27.9439 163.456 27.9439H159.144V22.1759ZM159.144 4.19992H183.504V9.96793H166.592V25.7039H159.144V4.19992ZM164.296 13.1599H182.384V18.7039H164.296V13.1599ZM190.616 2.12793H198.064V28.7279H190.616V2.12793ZM195.04 12.2639H204.896V18.2559H195.04V12.2639ZM163.792 30.9119H198.064V44.7439H171.296V50.9599H163.904V39.4799H190.728V36.5679H163.792V30.9119ZM163.904 47.9919H199.576V53.6479H163.904V47.9919Z" fill="#FECC1D"/>
<path d="M126.556 16.1839H134.452V22.1759H126.556V16.1839ZM117.764 5.87993C124.596 5.87993 129.636 11.2559 129.636 18.9839C129.636 26.6559 124.596 32.0879 117.764 32.0879C110.876 32.0879 105.892 26.6559 105.892 18.9839C105.892 11.2559 110.876 5.87993 117.764 5.87993ZM117.764 12.2639C114.74 12.2639 112.556 14.7279 112.556 18.9839C112.556 23.2399 114.74 25.7039 117.764 25.7039C120.732 25.7039 122.972 23.2399 122.972 18.9839C122.972 14.7279 120.732 12.2639 117.764 12.2639ZM142.852 2.12793H149.908V40.7119H142.852V2.12793ZM132.604 2.96793H139.548V39.1439H132.604V2.96793ZM115.02 47.1519H151.252V53.0879H115.02V47.1519ZM115.02 35.7839H122.468V50.2879H115.02V35.7839Z" fill="#FECC1D"/>
<path d="M66.6966 10.3039H72.6327V16.1279C72.6327 28.1119 67.7607 39.8159 58.0167 44.2399L53.8167 38.3599C62.4967 34.4959 66.6966 24.9199 66.6966 16.1279V10.3039ZM68.3766 10.3039H74.2567V16.1279C74.2567 24.5279 78.4007 33.4879 87.0807 37.0719L83.0487 42.9519C73.1927 38.6959 68.3766 27.6639 68.3766 16.1279V10.3039ZM55.8886 7.11192H84.9527V13.2159H55.8886V7.11192ZM89.7687 2.12793H97.2727V53.9839H89.7687V2.12793Z" fill="#FECC1D"/>
<path d="M22.405 31.3038H29.853V43.1198H22.405V31.3038ZM26.157 4.75977C37.245 4.75977 45.533 10.4158 45.533 19.0398C45.533 27.7758 37.245 33.3758 26.157 33.3758C15.069 33.3758 6.78102 27.7758 6.78102 19.0398C6.78102 10.4158 15.069 4.75977 26.157 4.75977ZM26.157 10.6398C19.045 10.6398 14.117 13.7758 14.117 19.0398C14.117 24.4158 19.045 27.4958 26.157 27.4958C33.269 27.4958 38.197 24.4158 38.197 19.0398C38.197 13.7758 33.269 10.6398 26.157 10.6398ZM2.74902 41.9438H49.677V47.9918H2.74902V41.9438Z" fill="#FECC1D"/>
<path fill-rule="evenodd" clip-rule="evenodd" d="M262.063 27.6639H266.375C277.463 27.6639 283.735 27.3839 290.399 25.9279L289.615 20.1039C288.955 20.245 288.302 20.3752 287.65 20.4954C282.922 21.3668 278.251 21.7096 271.455 21.8077C270.808 21.817 270.142 21.8241 269.455 21.8293V10.7519H285.247V4.92792H262.063V27.6639ZM271.455 12.7519H287.247V2.92792H260.063V29.6639H262.919V39.0159H262.975V55.4239H268.447C278.513 55.4239 282.303 55.3795 286.728 54.3033L288.474 53.8785L287.217 44.4034L285.055 44.9284C284.795 44.9916 284.537 45.0509 284.279 45.1066V39.2959H291.759V55.5919H303.095V21.0399H309.983V10.9919H303.095V0.12793H291.647V20.2075L291.309 17.6968L289.197 18.1481C283.935 19.2726 279.107 19.696 271.455 19.8074V12.7519ZM291.647 27.7024L290.826 27.8818C286.681 28.7875 282.692 29.2484 277.756 29.4719H291.647V27.7024ZM301.095 12.9919V2.12793H293.647V29.4559H301.095V19.0399H307.983V12.9919H301.095ZM293.759 37.2959V53.5919H301.095V31.4719H284.407V37.2959H293.759ZM272.199 44.8559H282.279V31.4719H264.919V37.0159H275.111V39.7599H264.975V53.4239H268.447C269.812 53.4239 271.057 53.4229 272.199 53.4187C272.903 53.4161 273.569 53.4123 274.199 53.4067C280.148 53.3545 283.013 53.1486 286.255 52.3599L285.527 46.8719C284.869 47.0317 284.226 47.1677 283.564 47.2836C281.18 47.7011 278.562 47.8563 274.199 47.9099C273.57 47.9176 272.905 47.9233 272.199 47.9273V44.8559Z" fill="#221A1A"/>
<path fill-rule="evenodd" clip-rule="evenodd" d="M207.428 4.88792H239.908V0.12793H251.412V19.7839H258.916V29.8879H251.412V55.9839H239.908V42.1331C229.349 43.9518 217.617 44.1679 208.868 44.1679H207.108L205.81 34.0639H208.084C209.289 34.0639 210.549 34.0619 211.852 34.0553V14.8239H207.428V4.88792ZM213.852 12.8239V36.0418C213.175 36.0477 212.508 36.0521 211.852 36.0554C211.258 36.0584 210.674 36.0604 210.1 36.0617C209.412 36.0633 208.739 36.0639 208.084 36.0639L208.868 42.1679C217.704 42.1679 229.446 41.9445 239.908 40.103C239.921 40.1006 239.934 40.0983 239.948 40.0959L239.556 34.6639C238.9 34.7463 238.237 34.8238 237.567 34.8968C236.924 34.967 236.274 35.0329 235.62 35.0949C234.958 35.1577 234.291 35.2164 233.62 35.2713V12.8239H238.044V6.88792H209.428V12.8239H213.852ZM221.076 12.8239V35.9172C221.739 35.8992 222.406 35.8791 223.076 35.8565C223.515 35.8418 223.955 35.826 224.396 35.8091C225.061 35.7836 225.728 35.7556 226.396 35.7248V12.8239H221.076ZM224.396 14.8239H223.076V33.8554C223.515 33.8405 223.955 33.8246 224.396 33.8076V14.8239ZM235.62 14.8239V33.0859C236.871 32.9657 238.103 32.8308 239.306 32.6795L239.908 32.6039V14.8239H235.62ZM241.908 53.9839H249.412V27.8879H256.916V21.7839H249.412V2.12793H241.908V53.9839Z" fill="#221A1A"/>
<path fill-rule="evenodd" clip-rule="evenodd" d="M159.144 27.9439H163.456C174.04 27.9439 180.2 27.8319 187.2 26.7679L186.584 20.9999C185.914 21.1025 185.256 21.1963 184.603 21.2819C179.685 21.9269 175.092 22.1126 168.592 22.1607C167.945 22.1654 167.279 22.1689 166.592 22.1712V18.7039H182.384V13.1599H166.592V9.96793H183.504V4.19992H159.144V27.9439ZM184.384 11.9679H185.504V2.19992H157.144V29.9439H161.792V38.5679H161.904V55.6479H201.576V45.9919H200.064V20.2559H206.896V10.2639H200.064V0.12793H188.616V21.193L188.35 18.7059L186.281 19.023C185.64 19.1212 185.01 19.2112 184.384 19.2935V11.9679ZM188.616 28.5757L187.501 28.7452C187.117 28.8035 186.735 28.8591 186.356 28.9119H188.616V28.5757ZM198.064 12.2639V2.12793H190.616V28.7279H198.064V18.2559H204.896V12.2639H198.064ZM171.296 44.7439H198.064V30.9119H163.792V36.5679H190.728V39.4799H163.904V53.6479H199.576V47.9919H171.296V44.7439Z" fill="#221A1A"/>
<path fill-rule="evenodd" clip-rule="evenodd" d="M128.775 24.1759C127.057 28.993 122.921 32.0879 117.764 32.0879C110.876 32.0879 105.892 26.6559 105.892 18.9839C105.892 11.2559 110.876 5.87993 117.764 5.87993C123.068 5.87993 127.291 9.11943 128.916 14.1839C129.121 14.8225 129.284 15.4901 129.403 16.1839H132.604V2.96793H139.548V39.1439H132.604V22.1759H129.327C129.188 22.8706 129.003 23.5384 128.775 24.1759ZM130.604 24.9838C128.939 29.5136 125.369 32.8019 120.724 33.7839H124.468V45.1519H153.252V55.0879H113.02V33.7839H114.788C108.244 32.4062 103.892 26.4896 103.892 18.9839C103.892 10.3285 109.603 3.87993 117.764 3.87993C123.836 3.87993 128.599 7.4993 130.604 12.96V0.967926H140.852V0.12793H151.908V42.7119H140.852V41.1439H130.604V24.9838ZM115.02 53.0879H151.252V47.1519H122.468V35.7839H115.02V53.0879ZM115.584 15.2819C115.019 15.9839 114.556 17.1802 114.556 18.9839C114.556 20.7876 115.019 21.9839 115.584 22.6859C116.119 23.3499 116.842 23.7039 117.764 23.7039C118.651 23.7039 119.38 23.3555 119.928 22.6802C120.501 21.9732 120.972 20.7757 120.972 18.9839C120.972 17.1921 120.501 15.9947 119.928 15.2877C119.38 14.6123 118.651 14.2639 117.764 14.2639C116.842 14.2639 116.119 14.6179 115.584 15.2819ZM112.556 18.9839C112.556 14.7279 114.74 12.2639 117.764 12.2639C120.732 12.2639 122.972 14.7279 122.972 18.9839C122.972 23.2399 120.732 25.7039 117.764 25.7039C114.74 25.7039 112.556 23.2399 112.556 18.9839ZM142.852 2.12793V40.7119H149.908V2.12793H142.852Z" fill="#221A1A"/>
<path fill-rule="evenodd" clip-rule="evenodd" d="M55.8887 13.2159V7.11192H84.9527V13.2159H74.2567V16.1279C74.2567 17.2933 74.3365 18.4695 74.497 19.6407C75.4094 26.2942 78.9302 32.784 85.2515 36.203C85.8371 36.5198 86.4468 36.8102 87.0807 37.0719L83.0487 42.9519C77.9323 40.7426 74.1742 36.7073 71.7428 31.7234C71.3221 30.8612 70.9412 29.9705 70.5998 29.056C70.2879 29.9832 69.9401 30.889 69.5564 31.7691C67.1369 37.3187 63.2904 41.8456 58.0167 44.2399L53.8167 38.3599C54.4403 38.0823 55.0407 37.7753 55.6182 37.4411C62.0845 33.6993 65.6643 26.5626 66.5035 19.4135C66.6325 18.3145 66.6967 17.2152 66.6967 16.1279V13.2159H55.8887ZM64.6967 15.2159H53.8887V5.11192H86.9527V15.2159H76.2567V16.1279C76.2567 23.9412 80.0931 31.9808 87.7687 35.192V0.12793H99.2727V55.9839H87.7687V39.6051L83.7672 45.4407L82.2558 44.7881C77.1303 42.5748 73.3087 38.7395 70.7006 34.0497C68.0983 39.3082 64.175 43.6404 58.8435 46.061L57.3455 46.7411L50.7654 37.529L53.0033 36.5328C60.7357 33.0906 64.6967 24.4112 64.6967 16.1279V15.2159ZM89.7687 53.9839H97.2727V2.12793H89.7687V53.9839Z" fill="#221A1A"/>
<path fill-rule="evenodd" clip-rule="evenodd" d="M20.405 32.8323C12.3225 31.2296 6.78102 26.1831 6.78102 19.0398C6.78102 10.4158 15.069 4.75977 26.157 4.75977C37.245 4.75977 45.533 10.4158 45.533 19.0398C45.533 26.1996 39.966 31.2529 31.853 32.8433C31.2022 32.9709 30.535 33.0762 29.853 33.1585V41.9438H49.677V47.9918H2.74902V41.9438H22.405V33.1517C21.7229 33.068 21.0557 32.9613 20.405 32.8323ZM20.405 34.8683C16.865 34.2174 13.6977 32.9483 11.1417 31.1063C7.22039 28.2804 4.78102 24.1193 4.78102 19.0398C4.78102 14.009 7.22681 9.86447 11.1417 7.0432C15.0153 4.25172 20.2964 2.75977 26.157 2.75977C32.0176 2.75977 37.2988 4.25172 41.1723 7.0432C45.0872 9.86447 47.533 14.009 47.533 19.0398C47.533 24.1193 45.0937 28.2804 41.1723 31.1063C38.6029 32.958 35.4157 34.2307 31.853 34.8785V39.9438H51.677V49.9918H0.749023V39.9438H20.405V34.8683ZM14.117 19.0398C14.117 13.7758 19.045 10.6398 26.157 10.6398C33.269 10.6398 38.197 13.7758 38.197 19.0398C38.197 24.4158 33.269 27.4958 26.157 27.4958C19.045 27.4958 14.117 24.4158 14.117 19.0398ZM18.5945 14.5197C16.9725 15.6225 16.117 17.1268 16.117 19.0398C16.117 21.0212 16.9835 22.5345 18.5945 23.6298C20.28 24.7757 22.8548 25.4958 26.157 25.4958C29.4593 25.4958 32.0341 24.7757 33.7196 23.6298C35.3306 22.5345 36.197 21.0212 36.197 19.0398C36.197 17.1268 35.3416 15.6225 33.7196 14.5197C32.0297 13.3708 29.452 12.6398 26.157 12.6398C22.862 12.6398 20.2844 13.3708 18.5945 14.5197Z" fill="#221A1A"/>
</svg>
