<svg width="256" height="57" viewBox="0 0 256 57" fill="none" xmlns="http://www.w3.org/2000/svg">
<path d="M245.298 2.18408H252.746V35.3361H245.298V2.18408ZM222.618 28.6721H230.122V38.8081H222.618V28.6721ZM210.578 31.2481L209.738 25.4801C219.034 25.4241 231.858 25.3121 242.722 23.8001L243.058 28.8961C231.97 30.9121 219.818 31.1361 210.578 31.2481ZM226.37 3.36008C234.154 3.36008 239.586 7.22408 239.586 12.9361C239.586 18.6481 234.154 22.4561 226.37 22.4561C218.586 22.4561 213.154 18.6481 213.154 12.9361C213.154 7.22408 218.586 3.36008 226.37 3.36008ZM226.37 8.84808C222.842 8.84808 220.378 10.2481 220.378 12.9361C220.378 15.5681 222.842 16.9681 226.37 16.9681C229.898 16.9681 232.362 15.5681 232.362 12.9361C232.362 10.2481 229.898 8.84808 226.37 8.84808ZM235.106 35.6721C246.194 35.6721 253.082 39.0881 253.082 44.8561C253.082 50.6801 246.194 54.0401 235.106 54.0401C224.018 54.0401 217.186 50.6801 217.186 44.8561C217.186 39.0881 224.018 35.6721 235.106 35.6721ZM235.106 41.3281C228.218 41.3281 224.69 42.4481 224.69 44.8561C224.69 47.3201 228.218 48.4961 235.106 48.4961C241.994 48.4961 245.578 47.3201 245.578 44.8561C245.578 42.4481 241.994 41.3281 235.106 41.3281Z" fill="#FDD502"/>
<path d="M163.262 24.4161H199.998V30.3521H163.262V24.4161ZM158.054 42.1681H204.982V48.1601H158.054V42.1681ZM177.766 27.9441H185.214V43.8481H177.766V27.9441ZM163.262 6.0481H170.766V26.9921H163.262V6.0481Z" fill="#FDD502"/>
<path d="M125.746 5.09595H132.242V8.84795C132.242 20.1039 124.234 30.0719 110.794 32.7039L107.602 26.5439C119.306 24.5279 125.746 16.2959 125.746 8.84795V5.09595ZM127.258 5.09595H133.698V8.84795C133.698 16.4639 140.082 24.5279 151.842 26.5439L148.65 32.7039C135.21 30.0719 127.258 20.2719 127.258 8.84795V5.09595ZM106.538 41.6079H153.466V47.6559H106.538V41.6079Z" fill="#FDD502"/>
<path d="M55.0225 41.7199H101.95V47.7679H55.0225V41.7199ZM74.5105 9.29594H80.7825V12.2639C80.7825 23.1279 72.9425 31.8639 59.7265 34.2719L56.8145 28.3359C68.3505 26.5439 74.5105 19.4319 74.5105 12.2639V9.29594ZM76.0225 9.29594H82.2945V12.2639C82.2945 19.4319 88.4545 26.3199 100.27 28.0559L97.4145 33.9919C83.9745 31.6399 76.0225 23.1279 76.0225 12.2639V9.29594ZM58.8865 6.43994H97.9185V12.3759H58.8865V6.43994Z" fill="#FDD502"/>
<path d="M39.0671 2.12793H46.5711V53.9839H39.0671V2.12793ZM16.219 15.5679H22.099V18.2559C22.099 29.2319 17.227 40.2639 7.65105 44.4079L3.67505 38.6959C12.187 34.8879 16.219 26.0959 16.219 18.2559V15.5679ZM17.8431 15.5679H23.667V18.2559C23.667 25.7039 27.7551 34.2159 36.3231 37.8559L32.3471 43.5679C22.771 39.5919 17.8431 28.8959 17.8431 18.2559V15.5679ZM5.41105 10.5839H34.251V16.4639H5.41105V10.5839ZM16.219 3.30393H23.667V13.6079H16.219V3.30393Z" fill="#FDD502"/>
<path fill-rule="evenodd" clip-rule="evenodd" d="M243.297 0.184082H254.745V37.3361H250.871C253.453 39.1325 255.081 41.6567 255.081 44.8561C255.081 48.7398 252.716 51.6198 249.152 53.4177C245.652 55.1834 240.806 56.0401 235.105 56.0401C229.405 56.0401 224.571 55.1835 221.083 53.4161C217.528 51.6144 215.185 48.7325 215.185 44.8561C215.185 41.1737 217.33 38.3806 220.617 36.5641V33.0387C217.041 33.1619 213.652 33.211 210.602 33.2479L208.851 33.2692L207.427 23.494L209.725 23.4801C212.676 23.4623 215.965 23.4388 219.422 23.3675C218.039 22.8878 216.78 22.252 215.679 21.4652C212.88 19.4646 211.153 16.5049 211.153 12.9361C211.153 9.36987 212.878 6.39831 215.673 4.38357C218.425 2.39979 222.17 1.36008 226.369 1.36008C230.569 1.36008 234.313 2.39979 237.066 4.38357C239.861 6.39831 241.585 9.36987 241.585 12.9361C241.585 16.5049 239.859 19.4646 237.059 21.4652C236.457 21.8955 235.808 22.2805 235.117 22.6196C237.618 22.4105 240.08 22.1484 242.446 21.8192L243.297 21.7006V0.184082ZM243.297 30.8852C239.633 31.5469 235.86 32.0165 232.121 32.3526V33.7565C233.086 33.7002 234.082 33.6721 235.105 33.6721C238.095 33.6721 240.849 33.9116 243.297 34.3948V30.8852ZM245.297 35.3361H252.745V2.18408H245.297V35.3361ZM243.297 36.4362C240.927 35.9343 238.177 35.6721 235.105 35.6721C234.073 35.6721 233.078 35.7017 232.121 35.76C231.434 35.802 230.767 35.8587 230.121 35.93V30.5144C230.787 30.4619 231.454 30.4054 232.121 30.3447C235.788 30.0108 239.478 29.5468 243.057 28.8961L242.721 23.8001C242.066 23.8913 241.403 23.9775 240.734 24.0588C231.104 25.2303 220.244 25.4056 211.757 25.4669C211.067 25.4719 210.393 25.4761 209.737 25.4801L210.577 31.2481C213.651 31.2108 217.046 31.1612 220.617 31.0373C221.278 31.0144 221.945 30.989 222.617 30.9606V37.799C221.941 38.1046 221.322 38.4414 220.765 38.8081C220.715 38.8408 220.666 38.8737 220.617 38.9069C218.393 40.4214 217.185 42.4309 217.185 44.8561C217.185 50.6801 224.017 54.0401 235.105 54.0401C246.193 54.0401 253.081 50.6801 253.081 44.8561C253.081 41.4637 250.699 38.8849 246.48 37.3361C246.101 37.1967 245.706 37.0657 245.297 36.9432C244.665 36.7536 243.998 36.5844 243.297 36.4362ZM223.139 11.5617C222.613 11.9029 222.377 12.3125 222.377 12.9361C222.377 13.5155 222.598 13.9141 223.131 14.2564C223.754 14.6562 224.829 14.9681 226.369 14.9681C227.91 14.9681 228.985 14.6562 229.607 14.2564C230.14 13.9141 230.361 13.5155 230.361 12.9361C230.361 12.3125 230.125 11.9029 229.6 11.5617C228.981 11.1603 227.91 10.8481 226.369 10.8481C224.828 10.8481 223.758 11.1603 223.139 11.5617ZM226.689 44.8483L226.689 44.8561C226.689 44.9364 226.697 44.9808 226.791 45.0794C226.931 45.2256 227.266 45.4674 227.967 45.7097C229.387 46.2002 231.72 46.4961 235.105 46.4961C238.49 46.4961 240.839 46.2004 242.276 45.7081C242.987 45.4645 243.33 45.2204 243.475 45.0709C243.574 44.9692 243.577 44.9269 243.577 44.8561C243.577 44.8526 243.577 44.8493 243.577 44.8461C243.578 44.8111 243.579 44.7863 243.496 44.7032C243.355 44.5622 243.013 44.3249 242.296 44.088C240.852 43.6102 238.495 43.3281 235.105 43.3281C231.715 43.3281 229.375 43.6105 227.947 44.0864C227.24 44.3221 226.907 44.5573 226.771 44.6947C226.689 44.7776 226.689 44.8028 226.689 44.8483ZM239.585 12.9361C239.585 7.22408 234.153 3.36008 226.369 3.36008C218.585 3.36008 213.153 7.22408 213.153 12.9361C213.153 18.6481 218.585 22.4561 226.369 22.4561C234.153 22.4561 239.585 18.6481 239.585 12.9361ZM220.377 12.9361C220.377 10.2481 222.841 8.84808 226.369 8.84808C229.897 8.84808 232.361 10.2481 232.361 12.9361C232.361 15.5681 229.897 16.9681 226.369 16.9681C222.841 16.9681 220.377 15.5681 220.377 12.9361ZM224.689 44.8561C224.689 42.4481 228.217 41.3281 235.105 41.3281C241.993 41.3281 245.577 42.4481 245.577 44.8561C245.577 47.3201 241.993 48.4961 235.105 48.4961C228.217 48.4961 224.689 47.3201 224.689 44.8561Z" fill="#221A1A"/>
<path fill-rule="evenodd" clip-rule="evenodd" d="M170.766 6.0481H163.262V30.3521H177.766V42.1681H158.054V48.1601H204.982V42.1681H185.214V30.3521H199.998V24.4161H170.766V6.0481ZM172.766 22.4161V4.0481H161.262V32.3521H175.766V40.1681H156.054V50.1601H206.982V40.1681H187.214V32.3521H201.998V22.4161H172.766Z" fill="#221A1A"/>
<path fill-rule="evenodd" clip-rule="evenodd" d="M133.698 8.84795C133.698 9.88566 133.817 10.9317 134.051 11.9696C135.436 18.0976 140.863 23.9428 149.808 26.123C150.467 26.2837 151.145 26.4244 151.842 26.5439L148.65 32.7039C140.566 31.1209 134.468 26.9447 130.891 21.3817C130.466 20.7208 130.077 20.0404 129.724 19.3424C129.367 20.0377 128.975 20.7163 128.546 21.376C124.947 26.9178 118.845 31.1272 110.794 32.7039L107.602 26.5439C108.298 26.424 108.976 26.2821 109.635 26.1196C118.609 23.9066 124.079 17.885 125.422 11.78C125.637 10.7997 125.746 9.81717 125.746 8.84795V5.09595H133.698V8.84795ZM129.714 23.2211C125.762 28.8473 119.376 33.0612 111.178 34.6667L109.708 34.9547L104.569 25.037L107.263 24.573C118.216 22.6863 123.746 15.125 123.746 8.84795V3.09595H135.698V8.84795C135.698 15.2868 141.165 22.6845 152.18 24.5727L154.877 25.035L149.736 34.9547L148.266 34.6667C140.034 33.0546 133.648 28.8681 129.714 23.2211ZM106.538 41.6079V47.6559H153.466V41.6079H106.538ZM104.538 39.6079H155.466V49.6559H104.538V39.6079Z" fill="#221A1A"/>
<path fill-rule="evenodd" clip-rule="evenodd" d="M55.0225 41.7199V47.7679H101.95V41.7199H55.0225ZM82.295 12.3759C82.301 13.0466 82.3609 13.7146 82.4744 14.3759C82.5153 14.614 82.563 14.8511 82.6177 15.0872C83.9298 20.7507 89.2211 25.8098 98.2255 27.6932C98.8872 27.8316 99.5688 27.9529 100.27 28.0559L97.4145 33.9919C89.3229 32.5759 83.2206 28.9271 79.6451 23.8766C79.2028 23.2517 78.7991 22.6054 78.4352 21.9393C78.0802 22.6116 77.6864 23.2648 77.2549 23.8971C73.739 29.049 67.7148 32.8164 59.7265 34.2719L56.8145 28.3359C57.5141 28.2273 58.194 28.099 58.854 27.9523C67.6378 26.0004 72.8872 20.7897 74.1898 15.0893C74.244 14.8523 74.2913 14.6144 74.3318 14.3759C74.4444 13.7129 74.504 13.0448 74.51 12.3759H58.8865V6.43994H97.9185V12.3759H82.295ZM84.5145 14.3759H99.9185V4.43994H56.8865V14.3759H72.2933C71.216 19.6238 66.109 24.8682 56.5075 26.3596L53.8219 26.7768L58.597 36.5107L60.085 36.2396C68.2128 34.7586 74.5714 30.9511 78.465 25.6536C82.4286 30.8469 88.8688 34.5269 97.0697 35.962L98.5605 36.2229L103.252 26.4725L100.561 26.0772C90.6891 24.6268 85.5949 19.5482 84.5145 14.3759ZM53.0225 39.7199H103.95V49.7679H53.0225V39.7199Z" fill="#221A1A"/>
<path fill-rule="evenodd" clip-rule="evenodd" d="M37.067 0.12793H48.571V55.9839H37.067V40.2879L33.068 46.0329L31.58 45.415C26.5396 43.3222 22.73 39.5848 20.1225 35.0417C17.5317 39.9371 13.6569 43.9881 8.44527 46.2434L6.94401 46.8931L0.653809 37.8565L2.85822 36.8703C10.4136 33.4903 14.1473 25.6556 14.2179 18.4639H3.41095V8.58393H14.219V1.30393H25.667V8.58393H36.251V18.4639H25.6681C25.7434 25.2031 29.4756 32.754 37.067 35.999V0.12793ZM39.067 53.9839H46.571V2.12793H39.067V53.9839ZM34.251 16.4639V10.5839H23.667V3.30393H16.219V10.5839H5.41095V16.4639H16.219V18.2559C16.219 18.3252 16.2186 18.3945 16.218 18.4639C16.2089 19.4718 16.1333 20.4944 15.9904 21.5193C15.1107 27.8277 11.6789 34.2221 5.47463 37.7806C4.89869 38.1109 4.29886 38.4168 3.67495 38.6959L7.65095 44.4079C12.794 42.1823 16.5802 37.9698 18.9835 32.8462C19.3762 32.009 19.7319 31.1475 20.0507 30.2663C20.3914 31.1374 20.7714 31.9876 21.1902 32.8119C23.6161 37.5858 27.3483 41.4924 32.347 43.5679L36.323 37.8559C35.6911 37.5875 35.0836 37.2926 34.5004 36.9735C28.3676 33.619 24.9109 27.5986 23.9475 21.6794C23.7716 20.5986 23.6788 19.5212 23.668 18.4639C23.6673 18.3945 23.667 18.3252 23.667 18.2559V16.4639H34.251Z" fill="#221A1A"/>
</svg>
