<svg width="307" height="57" viewBox="0 0 307 57" fill="none" xmlns="http://www.w3.org/2000/svg">
<path d="M280.319 5.82408H287.935C287.935 20.5521 281.663 30.4081 263.911 35.9521L261.111 30.1281C275.951 25.6481 280.319 18.4241 280.319 8.90408V5.82408ZM263.743 5.82408H284.687V11.7601H263.743V5.82408ZM280.655 16.0721V21.1121L262.175 22.5121L261.111 16.6881L280.655 16.0721ZM295.887 2.18408H303.391V39.8721H295.887V2.18408ZM268.839 47.2641H304.679V53.2001H268.839V47.2641ZM268.839 36.8481H276.287V50.7361H268.839V36.8481Z" fill="#D9D9D9"/>
<path d="M244.372 2.12793H251.876V53.9839H244.372V2.12793ZM221.524 15.5679H227.404V18.2559C227.404 29.2319 222.532 40.2639 212.956 44.4079L208.98 38.6959C217.492 34.8879 221.524 26.0959 221.524 18.2559V15.5679ZM223.148 15.5679H228.972V18.2559C228.972 25.7039 233.06 34.2159 241.628 37.8559L237.652 43.5679C228.076 39.5919 223.148 28.8959 223.148 18.2559V15.5679ZM210.716 10.5839H239.556V16.4639H210.716V10.5839ZM221.524 3.30393H228.972V13.6079H221.524V3.30393Z" fill="#D9D9D9"/>
<path d="M183.28 15.7921H196.384V21.7281H183.28V15.7921ZM193.192 2.18408H200.64V40.0401H193.192V2.18408ZM166.424 47.1521H201.816V53.0881H166.424V47.1521ZM166.424 36.2881H173.872V50.1761H166.424V36.2881ZM171.576 5.26408C179.248 5.26408 185.24 10.8081 185.24 18.5361C185.24 26.2081 179.248 31.8081 171.576 31.8081C163.848 31.8081 157.856 26.2081 157.856 18.5361C157.856 10.8081 163.848 5.26408 171.576 5.26408ZM171.576 11.7601C167.824 11.7601 164.968 14.2241 164.968 18.5361C164.968 22.7921 167.824 25.3121 171.576 25.3121C175.272 25.3121 178.128 22.7921 178.128 18.5361C178.128 14.2241 175.272 11.7601 171.576 11.7601Z" fill="#D9D9D9"/>
<path d="M108.3 6.77578H133.22V41.6638H108.3V6.77578ZM125.94 12.5998H115.636V35.7838H125.94V12.5998ZM141.284 2.07178H148.788V54.0958H141.284V2.07178Z" fill="#D9D9D9"/>
<path d="M89.9366 2.07178H97.3846V54.0958H89.9366V2.07178ZM57.0086 35.9518H61.6006C70.7846 35.9518 78.1206 35.6158 86.3526 34.2158L87.0806 40.2078C78.6806 41.7198 71.0646 41.9998 61.6006 41.9998H57.0086V35.9518ZM56.9526 6.49577H81.4246V26.5438H64.5686V38.1918H57.0086V20.6638H73.8086V12.4318H56.9526V6.49577Z" fill="#D9D9D9"/>
<path d="M8.01302 6.66406H40.661V12.6001H8.01302V6.66406ZM2.74902 41.7761H49.621V47.8801H2.74902V41.7761ZM37.525 6.66406H44.861V12.6561C44.861 20.2161 44.861 27.3841 42.453 38.6961L35.117 38.0241C37.525 27.5521 37.525 19.9921 37.525 12.6561V6.66406ZM39.093 20.8881V26.3761L7.39702 27.9441L6.50102 21.9521L39.093 20.8881Z" fill="#D9D9D9"/>
<path fill-rule="evenodd" clip-rule="evenodd" d="M261.743 3.82408V13.7601H277.827C277.796 13.8953 277.765 14.0297 277.731 14.1633L258.726 14.7623L260.531 24.6424L270.405 23.8944C267.922 25.5028 264.698 26.9561 260.533 28.2134L258.296 28.8887L262.858 38.3764L264.508 37.8612C265.305 37.612 266.083 37.3538 266.839 37.0863V55.2001H306.679V45.2641H278.287V34.8481H272.257C277.407 32.3633 281.337 29.2841 284.174 25.5399C288.304 20.0898 289.935 13.4717 289.935 5.82408V3.82408H261.743ZM267.144 34.8481C281.682 29.4217 287.372 20.5456 287.895 7.82408C287.922 7.16767 287.935 6.50102 287.935 5.82408H263.743V11.7601H280.175C280.103 12.4401 280.002 13.1068 279.871 13.7601C279.848 13.8731 279.825 13.9858 279.8 14.098C279.653 14.7706 279.472 15.4287 279.255 16.0721C279.25 16.087 279.245 16.1018 279.24 16.1167L261.111 16.6881L262.175 22.5121L276.247 21.446C275.621 22.1969 274.912 22.9195 274.113 23.6135C271.483 25.8968 267.876 27.8694 263.035 29.5125C262.414 29.7231 261.773 29.9283 261.111 30.1281L263.911 35.9521C264.924 35.6357 265.9 35.3053 266.839 34.9607C266.941 34.9233 267.043 34.8858 267.144 34.8481ZM276.287 47.2641V36.8481H268.839V53.2001H304.679V47.2641H276.287ZM293.887 0.184082H305.391V41.8721H293.887V0.184082ZM295.887 2.18408V39.8721H303.391V2.18408H295.887Z" fill="#221A1A"/>
<path fill-rule="evenodd" clip-rule="evenodd" d="M242.372 0.12793H253.876V55.9839H242.372V40.2879L238.373 46.0329L236.885 45.415C231.844 43.3222 228.035 39.5848 225.427 35.0417C222.836 39.9371 218.962 43.9881 213.75 46.2434L212.249 46.8931L205.958 37.8565L208.163 36.8703C215.718 33.4903 219.452 25.6556 219.523 18.4639H208.716V8.58393H219.524V1.30393H230.972V8.58393H241.556V18.4639H230.973C231.048 25.2031 234.78 32.754 242.372 35.999V0.12793ZM244.372 53.9839H251.876V2.12793H244.372V53.9839ZM239.556 16.4639V10.5839H228.972V3.30393H221.524V10.5839H210.716V16.4639H221.524V18.2559C221.524 18.3252 221.523 18.3945 221.523 18.4639C221.514 19.4717 221.438 20.4944 221.295 21.5192C220.415 27.8276 216.984 34.2221 210.779 37.7806C210.203 38.1109 209.604 38.4168 208.98 38.6959L212.956 44.4079C218.099 42.1823 221.885 37.9698 224.288 32.8462C224.681 32.009 225.037 31.1475 225.355 30.2663C225.696 31.1374 226.076 31.9876 226.495 32.8119C228.921 37.5858 232.653 41.4924 237.652 43.5679L241.628 37.8559C240.996 37.5875 240.388 37.2926 239.805 36.9735C233.672 33.619 230.216 27.5986 229.252 21.6795C229.076 20.5986 228.983 19.5212 228.973 18.4639C228.972 18.3945 228.972 18.3252 228.972 18.2559V16.4639H239.556Z" fill="#221A1A"/>
<path fill-rule="evenodd" clip-rule="evenodd" d="M184.417 13.7921C182.524 8.63862 177.562 5.26408 171.576 5.26408C163.848 5.26408 157.856 10.8081 157.856 18.5361C157.856 26.2081 163.848 31.8081 171.576 31.8081C177.377 31.8081 182.218 28.6064 184.233 23.7281C184.498 23.089 184.713 22.4212 184.876 21.7281H193.192V40.0401H200.64V2.18408H193.192V15.7921H184.976C184.84 15.1 184.652 14.4323 184.417 13.7921ZM186.532 13.7921C184.55 7.45057 178.63 3.26408 171.576 3.26408C162.832 3.26408 155.856 9.61685 155.856 18.5361C155.856 27.3938 162.826 33.8081 171.576 33.8081C178.458 33.8081 184.255 29.7901 186.376 23.7281H191.192V42.0401H202.64V0.184082H191.192V13.7921H186.532ZM166.424 53.0881H201.816V47.1521H173.872V36.2881H166.424V53.0881ZM175.872 45.1521V34.2881H164.424V55.0881H203.816V45.1521H175.872ZM168.262 14.9621C167.519 15.6879 166.968 16.8381 166.968 18.5361C166.968 20.2002 167.515 21.3554 168.266 22.0933C169.027 22.8399 170.151 23.3121 171.576 23.3121C172.965 23.3121 174.076 22.8448 174.832 22.0974C175.58 21.3583 176.128 20.2005 176.128 18.5361C176.128 16.8378 175.577 15.685 174.837 14.958C174.086 14.2211 172.977 13.7601 171.576 13.7601C170.139 13.7601 169.016 14.2259 168.262 14.9621ZM164.968 18.5361C164.968 14.2241 167.824 11.7601 171.576 11.7601C175.272 11.7601 178.128 14.2241 178.128 18.5361C178.128 22.7921 175.272 25.3121 171.576 25.3121C167.824 25.3121 164.968 22.7921 164.968 18.5361Z" fill="#221A1A"/>
<path fill-rule="evenodd" clip-rule="evenodd" d="M106.3 4.77578H135.22V43.6638H106.3V4.77578ZM139.284 0.0717773H150.788V56.0958H139.284V0.0717773ZM115.636 12.5998H125.94V35.7838H115.636V12.5998ZM117.636 33.7838H123.94V14.5998H117.636V33.7838ZM108.3 6.77578V41.6638H133.22V6.77578H108.3ZM141.284 2.07178V54.0958H148.788V2.07178H141.284Z" fill="#221A1A"/>
<path fill-rule="evenodd" clip-rule="evenodd" d="M87.9366 0.0717773H99.3846V56.0958H87.9366V42.0858L87.4349 42.1761C78.8585 43.7199 71.1019 43.9998 61.6006 43.9998H55.0086V18.6638H71.8086V14.4318H54.9526V4.49577H83.4246V28.5438H66.5686V33.9116C73.4751 33.7892 79.4613 33.3591 86.0173 32.2441L87.9366 31.9177V0.0717773ZM66.5686 35.9119C65.9102 35.9235 65.244 35.9323 64.5686 35.9386V26.5438H81.4246V6.49577H56.9526V12.4318H73.8086V20.6638H57.0086V41.9998H61.6006C71.0646 41.9998 78.6806 41.7198 87.0806 40.2078L86.3526 34.2158C85.6886 34.3287 85.0304 34.4347 84.3766 34.5342C78.4382 35.4376 72.8619 35.8014 66.5686 35.9119ZM89.9366 2.07178V54.0958H97.3846V2.07178H89.9366Z" fill="#221A1A"/>
<path fill-rule="evenodd" clip-rule="evenodd" d="M8.01302 6.66406V12.6001H37.525V12.6561C37.525 13.3017 37.525 13.9491 37.5234 14.6001C37.5198 16.0232 37.5084 17.4635 37.4719 18.9399C37.4561 19.5819 37.4355 20.2308 37.4088 20.8881C37.408 20.9064 37.4073 20.9248 37.4065 20.9431L6.50102 21.9521L7.39702 27.9441L37.0254 26.4783C36.9602 27.1383 36.8865 27.809 36.8032 28.4918C36.5153 30.8517 36.1125 33.3558 35.549 36.0553C35.4144 36.7001 35.2706 37.3562 35.117 38.0241L42.453 38.6961C44.861 27.3841 44.861 20.2161 44.861 12.6561V6.66406H8.01302ZM6.01302 4.66406V14.6001H35.5233C35.5196 16.0493 35.5077 17.5105 35.4695 19.0053L4.19084 20.0264L5.68687 30.0311L34.7756 28.5921C34.427 31.357 33.9162 34.3215 33.1679 37.5759L32.662 39.7761H0.749023V49.8801H51.621V39.7761H44.2679L44.4092 39.1125C46.861 27.5946 46.861 20.2593 46.861 12.6621V4.66406H6.01302ZM2.74902 41.7761V47.8801H49.621V41.7761H2.74902Z" fill="#221A1A"/>
</svg>
