<svg width="255" height="58" viewBox="0 0 255 58" fill="none" xmlns="http://www.w3.org/2000/svg">
<path d="M228.562 6.82408H236.178C236.178 21.5521 229.906 31.4081 212.154 36.9521L209.354 31.1281C224.194 26.6481 228.562 19.4241 228.562 9.90408V6.82408ZM211.986 6.82408H232.93V12.7601H211.986V6.82408ZM228.898 17.0721V22.1121L210.418 23.5121L209.354 17.6881L228.898 17.0721ZM244.13 3.18408H251.634V40.8721H244.13V3.18408ZM217.082 48.2641H252.922V54.2001H217.082V48.2641ZM217.082 37.8481H224.53V51.7361H217.082V37.8481Z" fill="#FF1001"/>
<path d="M192.614 3.12793H200.118V54.9839H192.614V3.12793ZM169.766 16.5679H175.646V19.2559C175.646 30.2319 170.774 41.2639 161.198 45.4079L157.222 39.6959C165.734 35.8879 169.766 27.0959 169.766 19.2559V16.5679ZM171.39 16.5679H177.214V19.2559C177.214 26.7039 181.302 35.2159 189.87 38.8559L185.894 44.5679C176.318 40.5919 171.39 29.8959 171.39 19.2559V16.5679ZM158.958 11.5839H187.798V17.4639H158.958V11.5839ZM169.766 4.30393H177.214V14.6079H169.766V4.30393Z" fill="#FF1001"/>
<path d="M141.098 3.18408H148.602V34.6001H141.098V3.18408ZM108.17 26.5361H112.706C122.786 26.5361 129.338 26.3121 136.842 25.0801L137.682 31.0161C129.954 32.3601 123.066 32.5281 112.706 32.5281H108.17V26.5361ZM108.114 6.20808H131.97V22.0001H115.506V29.8961H108.17V16.4561H124.634V12.1441H108.114V6.20808ZM131.13 35.5521C142.106 35.5521 148.938 39.0801 148.938 45.2961C148.938 51.4561 142.106 55.0401 131.13 55.0401C120.154 55.0401 113.434 51.4561 113.434 45.2961C113.434 39.0801 120.154 35.5521 131.13 35.5521ZM131.13 41.3201C124.354 41.3201 120.826 42.5521 120.826 45.2961C120.826 47.9841 124.354 49.2721 131.13 49.2721C137.962 49.2721 141.49 47.9841 141.49 45.2961C141.49 42.5521 137.962 41.3201 131.13 41.3201Z" fill="#FF1001"/>
<path d="M59.9588 4.02393H67.2948V7.43993H87.5108V4.02393H94.9028V21.3839H59.9588V4.02393ZM67.2948 12.8719V15.8959H87.5108V12.8719H67.2948ZM53.9668 24.1839H100.839V30.0079H53.9668V24.1839ZM59.3428 32.9759H95.1828V46.1359H66.7348V50.8399H59.3988V41.0399H87.8468V38.4079H59.3428V32.9759ZM59.3988 49.1039H96.5268V54.6479H59.3988V49.1039Z" fill="#FF1001"/>
<path d="M2.45117 8.05581H32.9712V13.8798H2.45117V8.05581ZM17.7392 15.5598C25.1872 15.5598 30.4512 19.4798 30.4512 25.1358C30.4512 30.8478 25.1872 34.7118 17.7392 34.7118C10.2352 34.7118 4.97117 30.8478 4.97117 25.1358C4.97117 19.4798 10.2352 15.5598 17.7392 15.5598ZM17.7392 21.1598C14.3792 21.1598 12.1392 22.5038 12.1392 25.1358C12.1392 27.7678 14.3792 29.1118 17.7392 29.1118C21.0432 29.1118 23.3392 27.7678 23.3392 25.1358C23.3392 22.5038 21.0432 21.1598 17.7392 21.1598ZM13.9872 2.90381H21.4352V11.1358H13.9872V2.90381ZM35.8272 3.12781H43.2752V39.4718H35.8272V3.12781ZM41.2032 16.9598H50.1632V23.0638H41.2032V16.9598ZM23.0592 36.7278H29.3872V37.3998C29.3872 46.2478 22.3312 53.0798 9.56317 54.8158L6.87517 49.1598C17.9632 47.8158 23.0592 42.6078 23.0592 37.3998V36.7278ZM24.1792 36.7278H30.4512V37.3998C30.4512 42.6078 35.6032 47.8158 46.6352 49.1598L44.0032 54.8158C31.2352 53.0798 24.1792 46.2478 24.1792 37.3998V36.7278Z" fill="#FF1001"/>
<path fill-rule="evenodd" clip-rule="evenodd" d="M209.986 4.82408V14.7601H226.069C226.039 14.8953 226.007 15.0297 225.973 15.1633L206.969 15.7623L208.774 25.6424L218.647 24.8944C216.165 26.5028 212.94 27.9561 208.776 29.2134L206.539 29.8887L211.1 39.3764L212.75 38.8612C213.548 38.612 214.325 38.3538 215.082 38.0863V56.2001H254.922V46.2641H226.53V35.8481H220.499C225.65 33.3633 229.58 30.2841 232.417 26.5399C236.546 21.0898 238.178 14.4717 238.178 6.82408V4.82408H209.986ZM215.386 35.8481C229.924 30.4217 235.614 21.5456 236.137 8.82408C236.164 8.16767 236.178 7.50102 236.178 6.82408H211.986V12.7601H228.417C228.345 13.4401 228.245 14.1068 228.113 14.7601C228.091 14.8731 228.067 14.9858 228.042 15.098C227.895 15.7706 227.714 16.4287 227.497 17.0721C227.492 17.087 227.487 17.1018 227.482 17.1167L209.354 17.6881L210.418 23.5121L224.489 22.446C223.863 23.1969 223.154 23.9195 222.355 24.6135C219.725 26.8968 216.118 28.8694 211.277 30.5125C210.656 30.7231 210.015 30.9283 209.354 31.1281L212.154 36.9521C213.167 36.6357 214.142 36.3053 215.082 35.9607C215.183 35.9233 215.285 35.8858 215.386 35.8481ZM224.53 48.2641V37.8481H217.082V54.2001H252.922V48.2641H224.53ZM242.13 1.18408H253.634V42.8721H242.13V1.18408ZM244.13 3.18408V40.8721H251.634V3.18408H244.13Z" fill="#221A1A"/>
<path fill-rule="evenodd" clip-rule="evenodd" d="M190.614 1.12793H202.118V56.9839H190.614V41.2879L186.615 47.0329L185.127 46.415C180.086 44.3222 176.277 40.5848 173.669 36.0417C171.079 40.9371 167.204 44.9881 161.992 47.2434L160.491 47.8931L154.201 38.8565L156.405 37.8703C163.96 34.4903 167.694 26.6556 167.765 19.4639H156.958V9.58393H167.766V2.30393H179.214V9.58393H189.798V19.4639H179.215C179.29 26.2031 183.022 33.754 190.614 36.999V1.12793ZM192.614 54.9839H200.118V3.12793H192.614V54.9839ZM187.798 17.4639V11.5839H177.214V4.30393H169.766V11.5839H158.958V17.4639H169.766V19.2559C169.766 19.3252 169.766 19.3945 169.765 19.4639C169.756 20.4717 169.68 21.4944 169.537 22.5192C168.658 28.8276 165.226 35.2221 159.022 38.7806C158.446 39.1109 157.846 39.4168 157.222 39.6959L161.198 45.4079C166.341 43.1823 170.127 38.9698 172.53 33.8462C172.923 33.009 173.279 32.1475 173.598 31.2663C173.938 32.1374 174.318 32.9876 174.737 33.8119C177.163 38.5858 180.895 42.4924 185.894 44.5679L189.87 38.8559C189.238 38.5875 188.631 38.2926 188.047 37.9735C181.914 34.619 178.458 28.5986 177.494 22.6795C177.318 21.5986 177.226 20.5212 177.215 19.4639C177.214 19.3945 177.214 19.3252 177.214 19.2559V17.4639H187.798Z" fill="#221A1A"/>
<path fill-rule="evenodd" clip-rule="evenodd" d="M139.098 1.18408H150.602V36.6001H145.575C148.871 38.5325 150.938 41.4717 150.938 45.2961C150.938 49.2776 148.666 52.3092 145.102 54.2372C141.616 56.1229 136.791 57.0401 131.13 57.0401C125.47 57.0401 120.67 56.1231 117.208 54.2336C113.663 52.2983 111.434 49.2631 111.434 45.2961C111.434 41.3051 113.659 38.2669 117.211 36.3359C118.723 35.514 120.49 34.8791 122.472 34.4246C119.501 34.5081 116.304 34.5281 112.706 34.5281H106.17V14.4561H122.634V14.1441H106.114V4.20808H133.97V23.4907C134.812 23.3753 135.659 23.2476 136.518 23.1065L138.536 22.7752L139.098 26.7483V1.18408ZM139.098 32.7998L138.025 32.9865C136.59 33.236 135.185 33.4457 133.782 33.6218C135.675 33.7242 137.454 33.9397 139.098 34.2717V32.7998ZM139.098 36.3151C136.783 35.812 134.109 35.5521 131.13 35.5521C120.154 35.5521 113.434 39.0801 113.434 45.2961C113.434 51.4561 120.154 55.0401 131.13 55.0401C142.106 55.0401 148.938 51.4561 148.938 45.2961C148.938 41.0613 145.767 38.0741 140.275 36.6001C139.894 36.4978 139.502 36.4027 139.098 36.3151ZM129.459 24.0001H117.506V24.5133C122.025 24.4641 125.815 24.3254 129.459 24.0001ZM117.506 26.5134C116.855 26.5205 116.189 26.5256 115.506 26.5292V22.0001H131.97V6.20808H108.114V12.1441H124.634V16.4561H108.17V32.5281H112.706C123.066 32.5281 129.954 32.3601 137.682 31.0161L136.842 25.0801C136.177 25.1893 135.519 25.2906 134.865 25.3846C129.386 26.1722 124.213 26.4411 117.506 26.5134ZM122.992 44.8307C122.879 44.9602 122.826 45.0825 122.826 45.2961C122.826 45.4854 122.872 45.6013 122.988 45.7339C123.139 45.9066 123.472 46.1653 124.149 46.4229C125.531 46.9488 127.812 47.2721 131.13 47.2721C134.478 47.2721 136.774 46.9487 138.163 46.4219C138.844 46.164 139.177 45.9049 139.329 45.7325C139.445 45.6004 139.49 45.4852 139.49 45.2961C139.49 45.0827 139.438 44.9611 139.325 44.8322C139.177 44.6624 138.849 44.4062 138.17 44.1517C136.781 43.6309 134.486 43.3201 131.13 43.3201C127.803 43.3201 125.523 43.6307 124.142 44.1508C123.467 44.4049 123.14 44.6607 122.992 44.8307ZM141.098 3.18408V34.6001H148.602V3.18408H141.098ZM120.826 45.2961C120.826 42.5521 124.354 41.3201 131.13 41.3201C137.962 41.3201 141.49 42.5521 141.49 45.2961C141.49 47.9841 137.962 49.2721 131.13 49.2721C124.354 49.2721 120.826 47.9841 120.826 45.2961Z" fill="#221A1A"/>
<path fill-rule="evenodd" clip-rule="evenodd" d="M57.9588 2.02393H69.2948V5.43993H85.5108V2.02393H96.9028V22.1839H102.839V32.0079H97.1828V47.1039H98.5268V56.6479H57.3988V40.4079H57.3428V32.0079H51.9668V22.1839H57.9588V2.02393ZM87.8468 38.4079V41.0399H59.3988V54.6479H96.5268V49.1039H66.7348V46.1359H95.1828V32.9759H59.3428V38.4079H87.8468ZM67.2948 7.43993V4.02393H59.9588V21.3839H94.9028V4.02393H87.5108V7.43993H67.2948ZM67.2948 15.8959V12.8719H87.5108V15.8959H67.2948ZM53.9668 24.1839V30.0079H100.839V24.1839H53.9668Z" fill="#221A1A"/>
<path fill-rule="evenodd" clip-rule="evenodd" d="M0.451172 6.05581H11.9872V0.903809H23.4352V6.05581H33.8272V1.12781H45.2752V14.9598H52.1632V25.0638H45.2752V41.4718H33.9704C35.9281 43.9985 39.9342 46.3287 46.877 47.1745L49.61 47.5074L45.1945 56.9962L43.7337 56.7976C37.0691 55.8914 31.6998 53.6303 27.9635 50.2599C27.5487 49.8857 27.1551 49.4987 26.7832 49.0996C26.4112 49.4987 26.0176 49.8857 25.6028 50.2599C21.8665 53.6303 16.4972 55.8914 9.83262 56.7976L8.38422 56.9945L3.87611 47.5087L6.63451 47.1743C17.385 45.8712 21.0592 41.0442 21.0592 37.3998V36.4629C19.9942 36.6281 18.8835 36.7118 17.7392 36.7118C13.6649 36.7118 10.0232 35.6648 7.34596 33.6694C4.62822 31.6437 2.97117 28.6748 2.97117 25.1358C2.97117 21.6207 4.63159 18.6548 7.34276 16.6256C7.69703 16.3605 8.06827 16.1118 8.45525 15.8798H0.451172V6.05581ZM32.9712 13.8798V8.05581H21.4352V2.90381H13.9872V8.05581H2.45117V13.8798H32.9712ZM21.2852 15.8798C20.1742 15.6699 18.9874 15.5598 17.7392 15.5598C16.4816 15.5598 15.287 15.6699 14.1694 15.8798C8.61867 16.9224 4.97117 20.4277 4.97117 25.1358C4.97117 30.8478 10.2352 34.7118 17.7392 34.7118C25.1872 34.7118 30.4512 30.8478 30.4512 25.1358C30.4512 20.4277 26.8037 16.9224 21.2852 15.8798ZM26.9773 15.8798H33.8272V41.2816C32.8691 39.9723 32.4512 38.6193 32.4512 37.3998V34.7278H26.416C27.0065 34.411 27.5644 34.0574 28.0858 33.6676C30.7948 31.6422 32.4512 28.6742 32.4512 25.1358C32.4512 21.6213 30.7914 18.6563 28.089 16.6274C27.7349 16.3616 27.3639 16.1123 26.9773 15.8798ZM22.4447 40.4833C20.9229 44.2048 16.5417 47.5087 8.94373 48.853C8.27892 48.9706 7.58948 49.0732 6.87517 49.1598L9.56317 54.8158C16.7765 53.8351 22.1667 51.2278 25.4914 47.5494C25.964 47.0266 26.3948 46.4822 26.7832 45.9177C27.1716 46.4822 27.6024 47.0266 28.0749 47.5494C31.3997 51.2278 36.7899 53.8351 44.0032 54.8158L46.6352 49.1598C45.9231 49.0731 45.2356 48.9702 44.5723 48.8523C37.0653 47.5178 32.6713 44.2543 31.1064 40.5682C30.6675 39.5342 30.4512 38.467 30.4512 37.3998V36.7278H23.0592V37.3998C23.0592 38.4379 22.8567 39.4759 22.4447 40.4833ZM43.2752 23.0638H50.1632V16.9598H43.2752V3.12781H35.8272V39.4718H43.2752V23.0638ZM14.8022 23.8158C14.3723 24.1075 14.1392 24.4808 14.1392 25.1358C14.1392 25.7908 14.3723 26.1642 14.8022 26.4559C15.3297 26.8138 16.2828 27.1118 17.7392 27.1118C19.1614 27.1118 20.1203 26.8162 20.6606 26.4522C21.1074 26.1511 21.3392 25.7728 21.3392 25.1358C21.3392 24.4988 21.1074 24.1205 20.6606 23.8195C20.1203 23.4554 19.1614 23.1598 17.7392 23.1598C16.2828 23.1598 15.3297 23.4578 14.8022 23.8158ZM12.1392 25.1358C12.1392 22.5038 14.3792 21.1598 17.7392 21.1598C21.0432 21.1598 23.3392 22.5038 23.3392 25.1358C23.3392 27.7678 21.0432 29.1118 17.7392 29.1118C14.3792 29.1118 12.1392 27.7678 12.1392 25.1358Z" fill="#221A1A"/>
</svg>
